<svg xmlns="http://www.w3.org/2000/svg" xmlns:xlink="http://www.w3.org/1999/xlink" viewBox="0 0 1588 805"><defs><style>.cls-1{fill:#7e729b;}.cls-2{fill:#e7def9;}.cls-10,.cls-11,.cls-3,.cls-4{stroke:#000;}.cls-10,.cls-11,.cls-3,.cls-4,.cls-6{stroke-miterlimit:10;}.cls-10,.cls-11,.cls-4,.cls-6{fill:none;}.cls-4{stroke-width:3px;}.cls-10,.cls-11,.cls-4,.cls-5,.cls-6{opacity:0.72;}.cls-5{fill:url(#linear-gradient);}.cls-6{stroke:#00a292;stroke-width:12px;}.cls-7{fill:#757575;}.cls-8{fill:#f6a8ff;}.cls-9{fill:#a8b5ff;}.cls-10{stroke-width:4px;}.cls-12{fill:#c33;}.cls-13{fill:#9effff;opacity:0.22;}</style><linearGradient id="linear-gradient" x1="767.93" y1="224.57" x2="770.42" y2="529.13" gradientUnits="userSpaceOnUse"><stop offset="0" stop-color="#73ffff"/><stop offset="0.35" stop-color="#72fdfd"/><stop offset="0.49" stop-color="#70f6f6"/><stop offset="0.59" stop-color="#6beaea"/><stop offset="0.68" stop-color="#65d8d8"/><stop offset="0.75" stop-color="#5cc2c2"/><stop offset="0.82" stop-color="#52a6a6"/><stop offset="0.88" stop-color="#468585"/><stop offset="0.93" stop-color="#375e5e"/><stop offset="0.98" stop-color="#283434"/><stop offset="1" stop-color="#212121"/></linearGradient></defs><g id="alien"><ellipse class="cls-1" cx="792.32" cy="545.94" rx="792.11" ry="264.04"/><ellipse class="cls-2" cx="792.32" cy="468.28" rx="698.92" ry="186.38"/><path class="cls-3" d="M287.38,410c3.15-40.86,228.68-74.2,510.77-74.2s499.59,37.77,508.82,77.7c5.72,24.8-24.5,39-77,49.44-91.22,18.2-252.78,21.27-431.87,21.27C516.06,484.21,284.67,445.16,287.38,410Z"/><path class="cls-4" d="M812.27,334.42s-18.2,31.7-38.64,2.69"/><path class="cls-5" d="M989.87,186.45c-4.86.17-9.44-.56-14.31.48-8.3,1.78-17.13,4.19-25.59,4.78A25.76,25.76,0,0,1,939,190c-4.72-1.71-5.27-3.1-9.24-1.8-8.36,2.74-13.34,5.83-22.53,4.84-8.93-1-16.69,4.32-25.64,3-6.75-1-13-7.87-19.34-7.53-4.23.23-8.24,2.83-12.46,3.48a30.42,30.42,0,0,1-10.46-.45c-5.47-1-9.28-1.47-14.72-.15-4.41,1.08-8.82,2-13.39,1.7-7.25-.5-13.43-6.23-20.42-6-3.19.11-6,1.22-9.27,1-4-.26-7.27-2.38-11.19-3-4.25-.71-8.5.36-12.8-.14s-8.37-2-12.75-1.55c-8.64.88-16.47,5.93-25.18,7.15-8.93,1.25-18,0-26.84,1.59a54.26,54.26,0,0,1-21.17,0c-8.21-1.52-14.12.93-22.1,1.86-6.75.79-12.53-2.09-17.31-6.76-6.76-6.61-10-12.14-20.51-10.26-6.47,1.17-12.1,1.53-18.21-1.32-7.06-3.28-12.12-9.82-20.56-7.3-7.05,2.1-13.1,7.39-19.68,10.89-29.85,34.39-47.38,76.25-47.38,121.41,0,117.06,117.64,212,262.75,212s262.75-94.89,262.75-212C1031.3,258.05,1016.26,219.12,989.87,186.45Z"/><ellipse class="cls-6" cx="768.23" cy="152.36" rx="180.07" ry="20.36"/><path class="cls-6" d="M579.5,159.77C563.34,142.56,663.71,132,768.23,132s191.09,10.09,191.09,24.68c0,11.25-86,23.45-190.56,23.45S589.58,170.49,579.5,159.77Z"/><path class="cls-7" d="M510.56,258.72,478.7,292c-20.3,30.24-26.89,67-18.13,101.06h0a117.13,117.13,0,0,0,46.34,66.9l9.35,6.54-3.38,28,63.82,31.29,15.45-23.41-42.49-18,4.77-11L598.13,490l2.07-13.27L563,457.25,568.27,446l36.56,11.42,3.06-20.29-50.09-9.8.64-44.06-22.83,1.63-9.77,54.11-7.21-8a99.9,99.9,0,0,1-22.57-42.69l-2.72-11a103.3,103.3,0,0,1-2.83-30.9h0c1.13-19.14,4-38.14,15.27-52.58l-.35-.05Z"/><path class="cls-7" d="M1026.48,258.72l13.58-4.33c14.84-4.72,28.83-13.25,41.17-25.08l9.41-9,28.85-27.46,11.77,28,59.22-4-.38-73.38-37.58-3.5L1159,96l-18.22-10-9.11,57.9-31.64,23a122.43,122.43,0,0,0-20.24,18.7h0c-11.86,13.64-25.7,24-40.69,30.36l-19.42,8.28"/><path class="cls-8" d="M708.41,202.13a52.09,52.09,0,0,1-38.47,5.24c-5.13-1.32-11.22-3.23-15.2.32-5.81,5.2-.08,14.89,6.32,19.31-7.87,2.93-16.58,1.51-24.94,2.2s-17.75,4.89-19.47,13.22c3.78,1.11,7.72,2.31,10.53,5.1s4,7.67,1.58,10.79c-1.45,1.84-3.77,2.66-5.92,3.56a48.93,48.93,0,0,0-23.43,20.83c-1.16,2.06-2.2,4.56-1.27,6.74,1.8,4.18,8,2.74,12.14,4.58,5.59,2.5,5.93,10.89,2.68,16.14s-8.76,8.53-13.12,12.87-7.67,11.07-5,16.62c6.37,4.86,19.23,0,21.21,7.83.58,2.32-.36,4.73-1.44,6.85-4.26,8.38-10.9,15.51-14,24.39s-1,21,7.78,24.23c9.55,3.55,23.47-4.24,28.78,4.57a11.4,11.4,0,0,1,1.4,6c-.08,9.68-7.72,18.34-6.7,28s10.87,16.34,20.37,16.5,18.38-4.77,25.9-10.67c-1.64,13.27-.4,29.62,11.28,35.81,8,4.24,18.22,1.59,25.34-4.07s11.82-13.79,16.34-21.73c6.12,12.69,15.41,27.38,29.31,26.5,11.91-.74,19.59-12.72,25.31-23.35,3.65,6.35,7.39,12.81,12.76,17.76s12.72,8.22,19.85,6.9,13-7.14,16.26-13.78,4.45-14.12,5.58-21.46c11.52.25,22.24,12.87,32.69,7.95,7.54-3.54,8.78-13.69,9-22.11,9.24-.55,15.5,11.88,24.73,11.3,5.77-.36,10-5.9,11.64-11.53s1.43-11.64,2.72-17.35c.44-1.92,1.2-4,2.94-4.86,2.2-1.09,4.74.26,7.16.65,8.18,1.31,13.6-8.15,16.52-16,4.15-11.18,7.16-26.35-2.68-32.89,8.78,3.38,19.83-2.48,22.09-11.73s-4.79-19.68-14.11-20.86L967,318.65c4.22-4.11,8.79-9.17,8-15s-6.58-9.59-12.2-10.92-11.58-1.07-17.06-2.9l13.13-21.43c.83-1.36,1.7-2.93,1.29-4.47-.56-2.09-3-2.86-5.12-3.24a108.65,108.65,0,0,0-34.8-.48c-4.51-11.47,5.07-27.09-3.59-35.75-4-4-10.6-4.32-15.86-2.24s-9.51,6.08-13.62,10a138.61,138.61,0,0,0-10.65-32.9c-1.5-3.19-3.35-6.54-6.55-7.93-5.34-2.31-11.16,2-14.88,6.53s-7.52,10-13.28,10.75c-13.56,1.85-18.9-22.59-32.58-22.16-8.25.27-12.87,9.41-16.52,16.92-1.41,2.91-3.86,6.24-7,5.55a7,7,0,0,1-3.38-2.38c-6.45-7.14-12.3-17.59-21.82-17l-5.28,18.06c-.51,1.74-1.1,3.6-2.52,4.7-4.34,3.37-9.25-3.08-12.61-7.46C731.14,193.21,710.37,194.68,708.41,202.13Z"/><ellipse class="cls-9" cx="779.82" cy="338.21" rx="146.82" ry="109.12"/><path class="cls-10" d="M692.62,343.52s27.56-48,58.53-4.08"/><path class="cls-10" d="M796.22,332.22s27.55-48,58.52-4.08"/><path class="cls-10" d="M782.32,364.3s-27.55,48-58.52,4.09"/><path class="cls-10" d="M840.85,360s-27.56,48-58.53,4.08"/><path class="cls-11" d="M1043.68,214.64c8,10.51,9.42,12.43,10.18,25.78,0,.59-1.46,8.21-.9,8.29"/><path class="cls-11" d="M488.28,445a41.56,41.56,0,0,1,20.49-22.92"/><path class="cls-11" d="M495,386.79a56.43,56.43,0,0,0-30,19.62c-.27.34-.55.78-.38,1.19s1,.2.76-.18"/><path class="cls-11" d="M491.08,344.45c-9.61,2.71-17.81,6.19-25.75,12.43-2,1.56-3.72,3.21-5.58,5-.63.6-5.13,4.7-2.18,2.25"/><path class="cls-11" d="M495,312.37a65.83,65.83,0,0,0-31.77,12.7c-.49.36-.37-1.08.05-.63"/><path class="cls-11" d="M504.81,294.91a21.33,21.33,0,0,0-24.8-4.4"/><path class="cls-11" d="M1068.85,197.33c8,9.34,11.23,19.69,11.07,32.18l1.33-1.5"/><path class="cls-11" d="M1092.75,172.36c7.55,12.16,9.34,24,7.94,38.39l0-2.06"/><path class="cls-11" d="M1120.79,152.83a68.35,68.35,0,0,1-.24,40.71"/><path class="cls-11" d="M1188.84,161.42l-35.53,4.45c-.46.06-1,.06-1.28-.36s.59-.94.66-.45"/><path class="cls-11" d="M1189.25,187.79l-33.43,6.33"/><path class="cls-2" d="M1491,468c0,105.49-313,191-699,191S93,573.49,93,468c0-60.72,108.21-60,269-23,51.12,11.76,108.91,24.1,187,31,74.66,6.59,168.93,8,249,8,71.77,0,250.29,16.22,400-16C1356,434,1491,434.62,1491,468Z"/><polygon class="cls-12" points="1420.42 469.24 1465.92 510.25 1444.7 533.78 1476.45 562.41 1497.67 538.87 1543.48 580.17 1561.82 559.83 1515.38 517.96 1536.23 494.82 1505.24 466.89 1484.39 490.02 1438.77 448.89 1420.42 469.24"/><polygon class="cls-12" points="163.82 460.24 118.33 501.25 139.55 524.78 107.79 553.41 86.58 529.87 40.77 571.17 22.43 550.83 68.87 508.96 48.01 485.82 79 457.89 99.86 481.02 145.48 439.89 163.82 460.24"/><polygon class="cls-12" points="724.77 546.38 724.77 631.41 644 631.41 644 690.75 724.77 690.75 724.77 776.38 794.6 776.38 794.6 689.57 874 689.57 874 631.65 794.6 631.65 794.6 546.38 724.77 546.38"/><path class="cls-13" d="M241.26,355.59C329.76,134.21,496.43-.23,811.2-.23S1284.73,136,1381.14,355.59c23.17,52.78,26.68,66.5,38.18,97.74,31.11,84.55-376.55,86.55-612.62,86.55C610,539.88,186,509.3,205.07,447.45,221.53,394.08,208.69,437.06,241.26,355.59Z"/></g></svg>