<svg xmlns="http://www.w3.org/2000/svg" xmlns:xlink="http://www.w3.org/1999/xlink" viewBox="0 0 1920 1080"><defs><style>.cls-1{fill:url(#radial-gradient);}.cls-2{opacity:0.85;fill:url(#radial-gradient-2);}.cls-3{fill:url(#linear-gradient);}.cls-4{fill:url(#linear-gradient-2);}.cls-5{fill:#0d4412;}.cls-6{fill:url(#linear-gradient-3);}.cls-7{fill:url(#linear-gradient-4);}.cls-8{fill:#0d4b12;}.cls-9{fill:#0d5512;}.cls-10{fill:#0d4e12;}.cls-11{fill:#f2f2f2;}</style><radialGradient id="radial-gradient" cx="960" cy="540" r="778.85" gradientUnits="userSpaceOnUse"><stop offset="0" stop-color="#73ffff"/><stop offset="0.03" stop-color="#6ef1f1"/><stop offset="0.09" stop-color="#60cccc"/><stop offset="0.18" stop-color="#4a9191"/><stop offset="0.28" stop-color="#2c3f3f"/><stop offset="0.31" stop-color="#212121"/><stop offset="0.38" stop-color="#141414"/><stop offset="0.47" stop-color="#090909"/><stop offset="0.61" stop-color="#020202"/><stop offset="1"/></radialGradient><radialGradient id="radial-gradient-2" cx="959.63" cy="539.9" r="232" gradientUnits="userSpaceOnUse"><stop offset="0" stop-color="#3d77a8"/><stop offset="0.15" stop-color="#3477ab"/><stop offset="0.39" stop-color="#1a76b5"/><stop offset="0.59" stop-color="#0075be"/><stop offset="0.99" stop-color="#005b97"/></radialGradient><linearGradient id="linear-gradient" x1="767.79" y1="647.31" x2="908.9" y2="588.2" gradientUnits="userSpaceOnUse"><stop offset="0" stop-color="#0d3512"/><stop offset="1" stop-color="#0d5412"/></linearGradient><linearGradient id="linear-gradient-2" x1="816.8" y1="364.54" x2="840.8" y2="394.13" gradientUnits="userSpaceOnUse"><stop offset="0" stop-color="#0d3512"/><stop offset="0.97" stop-color="#0d5412"/></linearGradient><linearGradient id="linear-gradient-3" x1="1173.92" y1="549.5" x2="986.63" y2="549.5" xlink:href="#linear-gradient"/><linearGradient id="linear-gradient-4" x1="1132.68" y1="390.19" x2="1096.42" y2="415.27" xlink:href="#linear-gradient"/></defs><g id="space"><rect class="cls-1" width="1920" height="1080"/></g><g id="earth"><circle class="cls-2" cx="959.63" cy="539.9" r="232"/><path class="cls-3" d="M861,740V683.81C861,682,871,659,871,659l16-9,5-12,9-8-6-11-6-7,12-7.66L911,596V572.87H899.23L891,564H861l-9-8.9L849,545h-4.84l-.16-9-8-8H821.34L817,522l-4-7-4-9H790.65L780,516l-12,19-10,24v18.59L770,601l11.5,11.5,6.79,10.5,8.21,11.5,1,16,19,37,18,30.93,11,23.47Z"/><path class="cls-4" d="M910.5,318.22,891,337l-8,10s3,11,4,13a68.18,68.18,0,0,0,5,7h4.75l3.25,4-8,5h-9v9.1L868,380l-12-2-22,11s-17,10-20,13-17,15-17,15l-7,20-6,9s-7-8-7-10V417.36S765,425,764,428s-10.83,18-10.83,18l-4.72-3.89,8.39-15A211.27,211.27,0,0,1,778,396.21l5.17-6.28a211.51,211.51,0,0,1,27.71-27.87h0a210.72,210.72,0,0,1,33.78-23l8.49-4.65a210.71,210.71,0,0,1,35.78-15.48l15.22-5Z"/><path class="cls-5" d="M804.5,474.5c-3,2-10,3-10,3l-6-7h-7.29l-6.71-7H782l7.5,3.15,9,3.85Z"/><path class="cls-6" d="M1090.5,692.5l-9-6V668.07l4.5-15.73,4.5-16.53V619.29l7-18.79,7-14s-11-13.41-11.5-15.21-11.5-11-11.5-11l11.5-23.61h-11.5l-15-10.17-17,13.4-17-7.4-11.31,7.4-15-13.4-11.74-6-4-3h-7.86l-4.14-15,5-16,3.86-16-3.94-7,3.08-10,8-12,6-7,8-5-2-10,10-5h8.63l10.37-5s14-3,16-3h12.18l2.82,10a42.84,42.84,0,0,1,10,3c4,2,12,4,12,4l7,5,3-9,13,4,12,6s11.14,17,12.57,17,11.17,13,11.8,17,11.8,14,11.8,14l13.83,21s8,15,8,18v23.4l-13.17,9.6s1.17,21,.17,24-3,21-4,24-12,23-12,23l-11,28-10,27s-11,8-11,5,1-10,1-10l-14,12-13,5Z"/><path class="cls-5" d="M1149.5,651.5l13-21,6-15s-6.51-5-7.25,0-9,13.78-7.87,16.89S1149.5,651.5,1149.5,651.5Z"/><path class="cls-7" d="M1123.5,429.5l7-8s-6-7-7-9-13-13-13-13-15-8-18-10-12.5-4.68-12.5-4.68-10.5-.32-13.5-.32-5.18,3.46-5.18,3.46l8.18,7.54-8.18,2.69-2.82-4.69-4-7L1042,383.24l-9.54,5.26v12.05l-9.73,5.95s-7.27-4-10.27-4-10.19-5-10.19-5v-4l-3.94-10.86h17.07l6.06-4.11-3-4H1011s6.54-9,9.54-9h7.77l4.23-9.8h12.3V343.9l6.7,5.6v3.84l11-1.84,11-1,6.5-1.88,8.79-1.47,11.91,8.55,8.45,6.8,5.74,5,10.81,10.39L1135.88,389l7.47,9.18,8.14,11.22L1159,421.2l15.71,31.57,6.79,10.73-13-7.87-9.5-9.13L1149.5,436l-12-7.46Z"/><polygon class="cls-8" points="963.5 336.5 972.41 336.5 978.5 332.1 971 328.95 963.5 328.95 959.63 328.95 959.63 332.73 963.5 336.5"/><path class="cls-8" d="M963.75,318.72l-13.12,4.72s16.12,7,9,5.51-21,.2-21,.2L925.2,336.5l-7.08,7.4L911,340v-7.24l7.5-7.23,9-7,6-5Z"/><polygon class="cls-9" points="995.5 362.5 1002.5 358.5 1002.5 349.41 995.5 349.41 990.51 355.95 995.5 362.5"/><polygon class="cls-9" points="1007.03 343.9 1007.03 352.56 1002.5 362.5 1004.76 367.51 1014.11 362.5 1014.11 349.41 1014.11 343.9 1007.03 343.9"/><polygon class="cls-10" points="1061.32 336.5 1054.24 343.9 1051.09 336.5 1042.44 334.7 1039.19 343.9 1027.5 339.18 1022.77 332.73 1027.5 325.5 1061.32 336.5"/></g><g id="stars"><path class="cls-11" d="M141.53,615l1.38-.36a25.27,25.27,0,0,0,18.69-21.75L163.52,575l1.21,16.6a25.29,25.29,0,0,0,18.78,22.61l2.87.75-1.47.3a25.27,25.27,0,0,0-20.07,22L163.31,651l-2-14.72A25.27,25.27,0,0,0,141.53,615Z"/><path class="cls-11" d="M434.53,877l1.38-.36a25.27,25.27,0,0,0,18.69-21.75L456.52,837l1.21,16.6a25.29,25.29,0,0,0,18.78,22.61l2.87.75-1.47.3a25.27,25.27,0,0,0-20.07,22L456.31,913l-2-14.72A25.27,25.27,0,0,0,434.53,877Z"/><path class="cls-11" d="M533.53,289l1.38-.36a25.27,25.27,0,0,0,18.69-21.75L555.52,249l1.21,16.6a25.29,25.29,0,0,0,18.78,22.61l2.87.75-1.47.3a25.27,25.27,0,0,0-20.07,22L555.31,325l-2-14.72A25.27,25.27,0,0,0,533.53,289Z"/><path class="cls-11" d="M1548.53,251l1.38-.36a25.27,25.27,0,0,0,18.69-21.75l1.92-17.85,1.21,16.6a25.29,25.29,0,0,0,18.78,22.61l2.87.75-1.47.3a25.27,25.27,0,0,0-20.07,22L1570.31,287l-2-14.72A25.27,25.27,0,0,0,1548.53,251Z"/><path class="cls-11" d="M1714.53,812l1.38-.36a25.27,25.27,0,0,0,18.69-21.75l1.92-17.85,1.21,16.6a25.29,25.29,0,0,0,18.78,22.61l2.87.75-1.47.3a25.27,25.27,0,0,0-20.07,22L1736.31,848l-2-14.72A25.27,25.27,0,0,0,1714.53,812Z"/><path class="cls-11" d="M1480.53,589l1.38-.36a25.27,25.27,0,0,0,18.69-21.75l1.92-17.85,1.21,16.6a25.29,25.29,0,0,0,18.78,22.61l2.87.75-1.47.3a25.27,25.27,0,0,0-20.07,22L1502.31,625l-2-14.72A25.27,25.27,0,0,0,1480.53,589Z"/><path class="cls-11" d="M1350.53,812l1.38-.36a25.27,25.27,0,0,0,18.69-21.75l1.92-17.85,1.21,16.6a25.29,25.29,0,0,0,18.78,22.61l2.87.75-1.47.3a25.27,25.27,0,0,0-20.07,22L1372.31,848l-2-14.72A25.27,25.27,0,0,0,1350.53,812Z"/><path class="cls-11" d="M1104.53,970.14l.72-.19a13.23,13.23,0,0,0,9.78-11.38l1-9.35.63,8.69a13.21,13.21,0,0,0,9.83,11.83l1.5.4-.77.15a13.22,13.22,0,0,0-10.5,11.5l-.81,7.21-1-7.7a13.22,13.22,0,0,0-10.35-11.16Z"/><path class="cls-11" d="M777.53,914.14l.72-.19A13.23,13.23,0,0,0,788,902.57l1-9.35.63,8.69a13.21,13.21,0,0,0,9.83,11.83l1.5.4-.77.15a13.22,13.22,0,0,0-10.5,11.5l-.81,7.21-1-7.7a13.22,13.22,0,0,0-10.35-11.16Z"/><path class="cls-11" d="M521.53,614.14l.72-.19A13.23,13.23,0,0,0,532,602.57l1-9.35.63,8.69a13.21,13.21,0,0,0,9.83,11.83l1.5.4-.77.15a13.22,13.22,0,0,0-10.5,11.5l-.81,7.21-1-7.7a13.22,13.22,0,0,0-10.35-11.16Z"/><path class="cls-11" d="M899.53,212.14l.72-.19A13.23,13.23,0,0,0,910,200.57l1-9.35.63,8.69a13.21,13.21,0,0,0,9.83,11.83l1.5.4-.77.15a13.22,13.22,0,0,0-10.5,11.5l-.81,7.21-1-7.7a13.22,13.22,0,0,0-10.35-11.16Z"/><path class="cls-11" d="M140.53,138.14l.72-.19A13.23,13.23,0,0,0,151,126.57l1-9.35.63,8.69a13.21,13.21,0,0,0,9.83,11.83l1.5.4-.77.15a13.22,13.22,0,0,0-10.5,11.5l-.81,7.21-1-7.7a13.22,13.22,0,0,0-10.35-11.16Z"/><path class="cls-11" d="M1759.53,178.14l.72-.19a13.23,13.23,0,0,0,9.78-11.38l1-9.35.63,8.69a13.21,13.21,0,0,0,9.83,11.83l1.5.4-.77.15a13.22,13.22,0,0,0-10.5,11.5l-.81,7.21-1-7.7a13.22,13.22,0,0,0-10.35-11.16Z"/></g></svg>