<svg xmlns="http://www.w3.org/2000/svg" xmlns:xlink="http://www.w3.org/1999/xlink" viewBox="0 0 1920 1080"><defs><style>.cls-1{fill:url(#radial-gradient);}.cls-2{opacity:0.85;fill:url(#radial-gradient-2);}.cls-3{fill:url(#linear-gradient);}.cls-4{fill:url(#linear-gradient-2);}.cls-5{fill:#0d4412;}.cls-6{fill:url(#linear-gradient-3);}.cls-7{fill:url(#linear-gradient-4);}.cls-8{fill:#0d4b12;}.cls-9{fill:#0d5512;}.cls-10{fill:#0d4e12;}.cls-11{fill:#f2f2f2;}.cls-12{fill:#c00;}.cls-13{fill:none;stroke:#fff;stroke-miterlimit:10;stroke-width:4px;}.cls-14{fill:#fff;}.cls-15{fill:#4f4c41;}.cls-16{fill:#302e2c;}.cls-17{fill:#21201f;}</style><radialGradient id="radial-gradient" cx="960" cy="540" r="778.85" gradientUnits="userSpaceOnUse"><stop offset="0" stop-color="#73ffff"/><stop offset="0.03" stop-color="#6ef1f1"/><stop offset="0.09" stop-color="#60cccc"/><stop offset="0.18" stop-color="#4a9191"/><stop offset="0.28" stop-color="#2c3f3f"/><stop offset="0.31" stop-color="#212121"/><stop offset="0.38" stop-color="#141414"/><stop offset="0.47" stop-color="#090909"/><stop offset="0.61" stop-color="#020202"/><stop offset="1"/></radialGradient><radialGradient id="radial-gradient-2" cx="959.63" cy="539.9" r="232" gradientUnits="userSpaceOnUse"><stop offset="0" stop-color="#3d77a8"/><stop offset="0.15" stop-color="#3477ab"/><stop offset="0.39" stop-color="#1a76b5"/><stop offset="0.59" stop-color="#0075be"/><stop offset="0.99" stop-color="#005b97"/></radialGradient><linearGradient id="linear-gradient" x1="767.79" y1="647.31" x2="908.9" y2="588.2" gradientUnits="userSpaceOnUse"><stop offset="0" stop-color="#0d3512"/><stop offset="1" stop-color="#0d5412"/></linearGradient><linearGradient id="linear-gradient-2" x1="816.8" y1="364.54" x2="840.8" y2="394.13" gradientUnits="userSpaceOnUse"><stop offset="0" stop-color="#0d3512"/><stop offset="0.97" stop-color="#0d5412"/></linearGradient><linearGradient id="linear-gradient-3" x1="1173.92" y1="549.5" x2="986.63" y2="549.5" xlink:href="#linear-gradient"/><linearGradient id="linear-gradient-4" x1="1132.68" y1="390.19" x2="1096.42" y2="415.27" xlink:href="#linear-gradient"/></defs><g id="space"><rect class="cls-1" width="1920" height="1080"/></g><g id="earth"><circle class="cls-2" cx="959.63" cy="539.9" r="232"/><path class="cls-3" d="M861,740V683.81C861,682,871,659,871,659l16-9,5-12,9-8-6-11-6-7,12-7.66L911,596V572.87H899.23L891,564H861l-9-8.9L849,545h-4.84l-.16-9-8-8H821.34L817,522l-4-7-4-9H790.65L780,516l-12,19-10,24v18.59L770,601l11.5,11.5,6.79,10.5,8.21,11.5,1,16,19,37,18,30.93,11,23.47Z"/><path class="cls-4" d="M910.5,318.22,891,337l-8,10s3,11,4,13a68.18,68.18,0,0,0,5,7h4.75l3.25,4-8,5h-9v9.1L868,380l-12-2-22,11s-17,10-20,13-17,15-17,15l-7,20-6,9s-7-8-7-10V417.36S765,425,764,428s-10.83,18-10.83,18l-4.72-3.89,8.39-15A211.27,211.27,0,0,1,778,396.21l5.17-6.28a211.51,211.51,0,0,1,27.71-27.87h0a210.72,210.72,0,0,1,33.78-23l8.49-4.65a210.71,210.71,0,0,1,35.78-15.48l15.22-5Z"/><path class="cls-5" d="M804.5,474.5c-3,2-10,3-10,3l-6-7h-7.29l-6.71-7H782l7.5,3.15,9,3.85Z"/><path class="cls-6" d="M1090.5,692.5l-9-6V668.07l4.5-15.73,4.5-16.53V619.29l7-18.79,7-14s-11-13.41-11.5-15.21-11.5-11-11.5-11l11.5-23.61h-11.5l-15-10.17-17,13.4-17-7.4-11.31,7.4-15-13.4-11.74-6-4-3h-7.86l-4.14-15,5-16,3.86-16-3.94-7,3.08-10,8-12,6-7,8-5-2-10,10-5h8.63l10.37-5s14-3,16-3h12.18l2.82,10a42.84,42.84,0,0,1,10,3c4,2,12,4,12,4l7,5,3-9,13,4,12,6s11.14,17,12.57,17,11.17,13,11.8,17,11.8,14,11.8,14l13.83,21s8,15,8,18v23.4l-13.17,9.6s1.17,21,.17,24-3,21-4,24-12,23-12,23l-11,28-10,27s-11,8-11,5,1-10,1-10l-14,12-13,5Z"/><path class="cls-5" d="M1149.5,651.5l13-21,6-15s-6.51-5-7.25,0-9,13.78-7.87,16.89S1149.5,651.5,1149.5,651.5Z"/><path class="cls-7" d="M1123.5,429.5l7-8s-6-7-7-9-13-13-13-13-15-8-18-10-12.5-4.68-12.5-4.68-10.5-.32-13.5-.32-5.18,3.46-5.18,3.46l8.18,7.54-8.18,2.69-2.82-4.69-4-7L1042,383.24l-9.54,5.26v12.05l-9.73,5.95s-7.27-4-10.27-4-10.19-5-10.19-5v-4l-3.94-10.86h17.07l6.06-4.11-3-4H1011s6.54-9,9.54-9h7.77l4.23-9.8h12.3V343.9l6.7,5.6v3.84l11-1.84,11-1,6.5-1.88,8.79-1.47,11.91,8.55,8.45,6.8,5.74,5,10.81,10.39L1135.88,389l7.47,9.18,8.14,11.22L1159,421.2l15.71,31.57,6.79,10.73-13-7.87-9.5-9.13L1149.5,436l-12-7.46Z"/><polygon class="cls-8" points="963.5 336.5 972.41 336.5 978.5 332.1 971 328.95 963.5 328.95 959.63 328.95 959.63 332.73 963.5 336.5"/><path class="cls-8" d="M963.75,318.72l-13.12,4.72s16.12,7,9,5.51-21,.2-21,.2L925.2,336.5l-7.08,7.4L911,340v-7.24l7.5-7.23,9-7,6-5Z"/><polygon class="cls-9" points="995.5 362.5 1002.5 358.5 1002.5 349.41 995.5 349.41 990.51 355.95 995.5 362.5"/><polygon class="cls-9" points="1007.03 343.9 1007.03 352.56 1002.5 362.5 1004.76 367.51 1014.11 362.5 1014.11 349.41 1014.11 343.9 1007.03 343.9"/><polygon class="cls-10" points="1061.32 336.5 1054.24 343.9 1051.09 336.5 1042.44 334.7 1039.19 343.9 1027.5 339.18 1022.77 332.73 1027.5 325.5 1061.32 336.5"/></g><g id="stars"><path class="cls-11" d="M141.53,615l1.38-.36a25.27,25.27,0,0,0,18.69-21.75L163.52,575l1.21,16.6a25.29,25.29,0,0,0,18.78,22.61l2.87.75-1.47.3a25.27,25.27,0,0,0-20.07,22L163.31,651l-2-14.72A25.27,25.27,0,0,0,141.53,615Z"/><path class="cls-11" d="M434.53,877l1.38-.36a25.27,25.27,0,0,0,18.69-21.75L456.52,837l1.21,16.6a25.29,25.29,0,0,0,18.78,22.61l2.87.75-1.47.3a25.27,25.27,0,0,0-20.07,22L456.31,913l-2-14.72A25.27,25.27,0,0,0,434.53,877Z"/><path class="cls-11" d="M533.53,289l1.38-.36a25.27,25.27,0,0,0,18.69-21.75L555.52,249l1.21,16.6a25.29,25.29,0,0,0,18.78,22.61l2.87.75-1.47.3a25.27,25.27,0,0,0-20.07,22L555.31,325l-2-14.72A25.27,25.27,0,0,0,533.53,289Z"/><path class="cls-11" d="M1548.53,251l1.38-.36a25.27,25.27,0,0,0,18.69-21.75l1.92-17.85,1.21,16.6a25.29,25.29,0,0,0,18.78,22.61l2.87.75-1.47.3a25.27,25.27,0,0,0-20.07,22L1570.31,287l-2-14.72A25.27,25.27,0,0,0,1548.53,251Z"/><path class="cls-11" d="M1714.53,812l1.38-.36a25.27,25.27,0,0,0,18.69-21.75l1.92-17.85,1.21,16.6a25.29,25.29,0,0,0,18.78,22.61l2.87.75-1.47.3a25.27,25.27,0,0,0-20.07,22L1736.31,848l-2-14.72A25.27,25.27,0,0,0,1714.53,812Z"/><path class="cls-11" d="M1480.53,589l1.38-.36a25.27,25.27,0,0,0,18.69-21.75l1.92-17.85,1.21,16.6a25.29,25.29,0,0,0,18.78,22.61l2.87.75-1.47.3a25.27,25.27,0,0,0-20.07,22L1502.31,625l-2-14.72A25.27,25.27,0,0,0,1480.53,589Z"/><path class="cls-11" d="M1350.53,812l1.38-.36a25.27,25.27,0,0,0,18.69-21.75l1.92-17.85,1.21,16.6a25.29,25.29,0,0,0,18.78,22.61l2.87.75-1.47.3a25.27,25.27,0,0,0-20.07,22L1372.31,848l-2-14.72A25.27,25.27,0,0,0,1350.53,812Z"/><path class="cls-11" d="M1104.53,970.14l.72-.19a13.23,13.23,0,0,0,9.78-11.38l1-9.35.63,8.69a13.21,13.21,0,0,0,9.83,11.83l1.5.4-.77.15a13.22,13.22,0,0,0-10.5,11.5l-.81,7.21-1-7.7a13.22,13.22,0,0,0-10.35-11.16Z"/><path class="cls-11" d="M777.53,914.14l.72-.19A13.23,13.23,0,0,0,788,902.57l1-9.35.63,8.69a13.21,13.21,0,0,0,9.83,11.83l1.5.4-.77.15a13.22,13.22,0,0,0-10.5,11.5l-.81,7.21-1-7.7a13.22,13.22,0,0,0-10.35-11.16Z"/><path class="cls-11" d="M521.53,614.14l.72-.19A13.23,13.23,0,0,0,532,602.57l1-9.35.63,8.69a13.21,13.21,0,0,0,9.83,11.83l1.5.4-.77.15a13.22,13.22,0,0,0-10.5,11.5l-.81,7.21-1-7.7a13.22,13.22,0,0,0-10.35-11.16Z"/><path class="cls-11" d="M899.53,212.14l.72-.19A13.23,13.23,0,0,0,910,200.57l1-9.35.63,8.69a13.21,13.21,0,0,0,9.83,11.83l1.5.4-.77.15a13.22,13.22,0,0,0-10.5,11.5l-.81,7.21-1-7.7a13.22,13.22,0,0,0-10.35-11.16Z"/><path class="cls-11" d="M140.53,138.14l.72-.19A13.23,13.23,0,0,0,151,126.57l1-9.35.63,8.69a13.21,13.21,0,0,0,9.83,11.83l1.5.4-.77.15a13.22,13.22,0,0,0-10.5,11.5l-.81,7.21-1-7.7a13.22,13.22,0,0,0-10.35-11.16Z"/><path class="cls-11" d="M1759.53,178.14l.72-.19a13.23,13.23,0,0,0,9.78-11.38l1-9.35.63,8.69a13.21,13.21,0,0,0,9.83,11.83l1.5.4-.77.15a13.22,13.22,0,0,0-10.5,11.5l-.81,7.21-1-7.7a13.22,13.22,0,0,0-10.35-11.16Z"/></g><g id="Layer_5" data-name="Layer 5"><path class="cls-12" d="M113.6,102.7,82.1,61.37A14.21,14.21,0,0,1,83,45.26L85.55,42a13.63,13.63,0,0,1,21.67.17l7.49,10a1.5,1.5,0,0,0,2.46-.08l4.43-8.82a13.64,13.64,0,0,1,22.77-.16h0c2.86,4.28,3.19,11.76.86,16.34l-29,43.18A1.5,1.5,0,0,1,113.6,102.7Z"/><path class="cls-12" d="M191.6,102.7,160.1,61.37A14.21,14.21,0,0,1,161,45.26L163.55,42a13.63,13.63,0,0,1,21.67.17l7.49,10a1.5,1.5,0,0,0,2.46-.08l4.43-8.82a13.64,13.64,0,0,1,22.77-.16h0c2.86,4.28,3.19,11.76.86,16.34l-29,43.18A1.5,1.5,0,0,1,191.6,102.7Z"/><path class="cls-13" d="M269.6,102.7,238.1,61.37A14.21,14.21,0,0,1,239,45.26L241.55,42a13.63,13.63,0,0,1,21.67.17l7.49,10a1.5,1.5,0,0,0,2.46-.08l4.43-8.82a13.64,13.64,0,0,1,22.77-.16h0c2.86,4.28,3.19,11.76.86,16.34l-29,43.18A1.5,1.5,0,0,1,269.6,102.7Z"/><path class="cls-14" d="M1531.38,64.83c0-10.75,5.38-14.91,11.22-14.91a10.63,10.63,0,0,1,7.47,2.86L1548.14,55a7.92,7.92,0,0,0-5.33-2.14c-4.37,0-8.15,3.06-8.15,12,0,6.6,2.52,10.17,7,10.17a5.56,5.56,0,0,0,5.63-5.88c0-3.66-2-5.67-5.67-5.67-2.14,0-4.71,1-7,3.78l-.12-2.73a11.33,11.33,0,0,1,7.77-3.66c5,0,8.36,2.77,8.36,8.28a8.65,8.65,0,0,1-8.95,8.61C1535.79,77.73,1531.38,73.44,1531.38,64.83Z"/><path class="cls-14" d="M1556.33,63.74c0-9,3.65-13.82,9.62-13.82s9.62,4.83,9.62,13.82-3.66,14-9.62,14S1556.33,72.65,1556.33,63.74Zm16,0c0-7.69-2.64-11-6.38-11s-6.39,3.32-6.39,11,2.65,11.17,6.39,11.17S1572.33,71.43,1572.33,63.74Zm-9-.29a2.61,2.61,0,1,1,2.61,2.81A2.61,2.61,0,0,1,1563.34,63.45Z"/><path class="cls-14" d="M1606.56,73.65l2.1-2.43a11.63,11.63,0,0,0,8.06,3.4c3.79,0,6-1.81,6-4.33,0-2.94-2.14-3.78-4.91-5l-4-1.77c-2.73-1.09-5.92-3-5.92-7.1s3.78-7.31,9-7.31a12,12,0,0,1,8.49,3.41l-1.85,2.26a9.72,9.72,0,0,0-6.76-2.56c-3.2,0-5.34,1.51-5.34,4,0,2.65,2.56,3.61,4.92,4.54l3.86,1.72c3.4,1.35,6.09,3.28,6.09,7.35,0,4.37-3.69,7.86-9.74,7.86A14,14,0,0,1,1606.56,73.65Z"/><path class="cls-14" d="M1633.73,49.67h17.06v3h-13.53v8.61h11.43v3h-11.43v10h14v3h-17.48Z"/><path class="cls-14" d="M1656.88,63.45c0-8.87,5.16-14.29,12.34-14.29a10.36,10.36,0,0,1,7.57,3.36l-2,2.23a7.39,7.39,0,0,0-5.55-2.48c-5.25,0-8.69,4.24-8.69,11.09s3.44,11.26,8.69,11.26a7.92,7.92,0,0,0,6.18-3l2,2.15a10.67,10.67,0,0,1-8.53,4C1662.08,77.73,1656.88,72.43,1656.88,63.45Z"/><path class="cls-14" d="M1681.36,63.32c0-8.91,4.37-14.16,10.59-14.16s10.58,5.25,10.58,14.16-4.37,14.41-10.58,14.41S1681.36,72.35,1681.36,63.32Zm17.52,0c0-6.93-2.78-11-6.93-11s-6.94,4.12-6.94,11,2.78,11.3,6.94,11.3S1698.88,70.38,1698.88,63.32Z"/><path class="cls-14" d="M1708,49.67h3.86l8.82,17.3,2.65,5.72h.08c-.12-2.73-.46-5.84-.46-8.74V49.67h3.36V77.22h-3.86l-8.82-17.3L1711,54.2h-.08c.12,2.82.46,5.76.46,8.61V77.22H1708Z"/><path class="cls-14" d="M1733.4,49.67h6.8c8.28,0,12.77,4.91,12.77,13.65s-4.49,13.9-12.6,13.9h-7ZM1740,74.33c6.26,0,9.37-4,9.37-11s-3.11-10.75-9.37-10.75h-3V74.33Z"/><path class="cls-14" d="M1757.76,73.65l2.1-2.43a11.61,11.61,0,0,0,8.06,3.4c3.78,0,6-1.81,6-4.33,0-2.94-2.15-3.78-4.92-5l-4-1.77c-2.73-1.09-5.92-3-5.92-7.1s3.78-7.31,9-7.31a12,12,0,0,1,8.49,3.41l-1.85,2.26a9.73,9.73,0,0,0-6.77-2.56c-3.19,0-5.33,1.51-5.33,4,0,2.65,2.56,3.61,4.91,4.54l3.87,1.72c3.4,1.35,6.09,3.28,6.09,7.35,0,4.37-3.7,7.86-9.75,7.86A14,14,0,0,1,1757.76,73.65Z"/><path class="cls-14" d="M845.54,77l1.76-2.27A10.87,10.87,0,0,0,855,77.83c3.66,0,6.39-1.89,6.39-4.87,0-3.2-2.69-5.34-9.71-5.34V65c6.35,0,8.78-2.19,8.78-5,0-2.57-2.22-4.2-5.46-4.2a10.12,10.12,0,0,0-6.59,2.68l-1.85-2.18a13,13,0,0,1,8.57-3.36c5,0,8.86,2.48,8.86,6.8,0,3.24-2.39,5.3-5.71,6.39v.17c3.57.75,6.64,3.11,6.64,6.8,0,4.75-4.37,7.65-9.71,7.65A13.15,13.15,0,0,1,845.54,77Z"/><path class="cls-14" d="M904,69.64l-7.14-9.83h3.82l3.24,4.45c.71,1.14,1.55,2.35,2.39,3.45h.17c.76-1.1,1.6-2.36,2.31-3.49l3-4.41h3.69l-7.22,10.12,7.81,10.29H912.2l-3.53-4.7c-.88-1.14-1.81-2.52-2.69-3.7h-.17c-.84,1.22-1.68,2.44-2.52,3.74l-3.36,4.66h-3.7Z"/><path class="cls-15" d="M980.33,102.77c-1.18-.3-8-3.24-8-3.24l-5.87-2.64h0a8.38,8.38,0,0,1-5.49-6l-.68-2.83a0,0,0,0,0,0,0L957,80.73a6.31,6.31,0,0,1-.54-2.52V66a6.42,6.42,0,0,1,.13-1.23L958.4,56a.1.1,0,0,1,.05-.08l25.68-21.71s0,0,.06,0l14.08-3.06a6.9,6.9,0,0,1,1.5-.17h7.62a7.06,7.06,0,0,1,2.31.4l10,2.18h0l18.78,10,0,0c.62.91,3.4,4.54,3.51,4.68l0,0,2.89,2.72a.11.11,0,0,1,0,.09l1.47,19.23v0a15.87,15.87,0,0,1-.38,2.2,10.86,10.86,0,0,1-3.24,5.64l-1.38,1.27h0L1030.66,88l0,0-2.92,4.09,0,0-3.22,2.92h0l-3.32,2.24h0l-2.24,2.15v0l-3.22,2.34h0L1013,104.5a.13.13,0,0,1-.1,0H985.6Z"/><path class="cls-16" d="M985.62,104.53l3-3.23,4.31-1,4.22-.4h4.81l4.51.89,3.53,1.42,2.45,1.13.53,1.18a3.42,3.42,0,0,1-.07,2.9h0a3.35,3.35,0,0,1-2.4,1.81c-2,.37-5.12,1-5.71,1.17-.88.29-9.6,1.21-10.74,1.21a29.84,29.84,0,0,1-5.76-2,3.38,3.38,0,0,1-1.86-2.2Z"/><path class="cls-17" d="M963.09,80.85l2-3.21a5.7,5.7,0,0,1,1.74-1.75c1.36-.87,3.57-2.28,3.84-2.35s2.5-.29,4.17-.46a5.72,5.72,0,0,1,3.39.71l2.5,1.4a5.81,5.81,0,0,1,1.31,1l1.68,1.72a5.83,5.83,0,0,1,1.6,3.35l0,.4A5.74,5.74,0,0,1,984.8,85l-1.23,2.36a6.33,6.33,0,0,1-.71,1.06l-3.21,3.8a5.8,5.8,0,0,1-1.38,1.19c-1.43.89-4.33,2.68-4.37,2.76s-3-.3-3.38,0a13.39,13.39,0,0,1-3.62-.62,5.76,5.76,0,0,1-3.75-2.92h0a5.76,5.76,0,0,1-.66-2.29l-.29-4.07c0-.14,0-.27,0-.41V84A5.79,5.79,0,0,1,963.09,80.85Z"/><path class="cls-17" d="M1008.38,74.81l3.11-1.55a6.79,6.79,0,0,1,4.18-.62l4.14.71a7,7,0,0,1,2.12.74l4.79,2.63a6.85,6.85,0,0,1,2,1.69h0A6.75,6.75,0,0,1,1030.1,84l-.12.62a7,7,0,0,1-.76,2l-1.28,2.24a6.8,6.8,0,0,1-1.32,1.65l-3.35,3a5.18,5.18,0,0,1-.58.47l-3.31,2.41a6.87,6.87,0,0,1-3.1,1.23c-1.25.17-2.77.36-3,.36s-3.09-.85-4.86-1.39a7,7,0,0,1-2.52-1.41l-1-.91a6.87,6.87,0,0,1-2-3.19,26.52,26.52,0,0,1-.86-3.4c.1-.29.89-4.31,1-4.61s1.32-3,2.25-5.05A6.76,6.76,0,0,1,1008.38,74.81Z"/><path class="cls-16" d="M985.62,33.89l3.07,1.85a5.63,5.63,0,0,1,2.46,3.18h0a5.56,5.56,0,0,1-.37,4.16l-1.43,2.82a5.42,5.42,0,0,1-1.3,1.67L981.3,53.5a5.47,5.47,0,0,1-1,.73l-7.87,4.21c-.29.14-4.58.74-6.69,1a5.62,5.62,0,0,1-2.27-.16l-.73-.21a5.69,5.69,0,0,1-2.28-1.26l-2-1.85V52.39a12,12,0,0,1,.27-2.54l.89-4.21a12.25,12.25,0,0,1,3.26-6l.86-.86a12.2,12.2,0,0,1,5.25-3.12l4.52-1.31c.26-.08.53-.15.8-.21l2.62-.57Z"/><path class="cls-16" d="M1035.35,40.68s-4,2.16-4.61,2.26-3.82.59-4.12.59-7.26-1-7.94-1.18a24.81,24.81,0,0,1-3-1.27,10.17,10.17,0,0,1-.94-2.38,3.36,3.36,0,0,1-.14-1h0a3.18,3.18,0,0,1,1.76-2.85l1.38-.69,5.34-1.7a7.6,7.6,0,0,1,2.32-.36h2a7.71,7.71,0,0,1,3.42.81l.34.17a7.6,7.6,0,0,1,3.31,3.21h0a7.63,7.63,0,0,1,.91,3.62Z"/><path class="cls-16" d="M1045.94,68.34l-2.54.34a4.26,4.26,0,0,1-2.28-.33h0a4.27,4.27,0,0,1-2-1.91l-.41-.77a4.25,4.25,0,0,1-.36-3l.34-1.39a4.88,4.88,0,0,1,.42-1.06l1.49-2.64,1.46-2.48a4.24,4.24,0,0,1,1.33-1.4l2.28-1.49,3,3a8.08,8.08,0,0,0,.6,1.14,12.92,12.92,0,0,1,.74,3.38A7.84,7.84,0,0,1,1048,66h0Z"/><path class="cls-17" d="M974.35,61.08a.26.26,0,0,0,0,.17c.64.84,5.45,8.27,5.73,8.27s5.46,3.56,7.57,5a.3.3,0,0,0,.44-.38l-1.52-3.42,0,0-5.74-8.07a.46.46,0,0,0-.07-.07l-4.52-3.27a.22.22,0,0,0-.11,0l-1.44-.31a.31.31,0,0,0-.36.3Z"/><path class="cls-17" d="M999.48,73.2l7.12-8.08,0,0,6.16-4.58h0l6.05-4,0,0,1.54-.41a.18.18,0,0,1,.22.22l-.59,2.48a.21.21,0,0,1-.07.11l-8.18,6s0,0,0,0l-6.24,6.53a.18.18,0,0,1-.07,0l-5.81,2A.19.19,0,0,1,999.48,73.2Z"/><path class="cls-17" d="M982.37,95.2c2-.15,14.36-1.15,17.46-1.4a.85.85,0,0,1,.89.63h0a.87.87,0,0,1-.57,1l-2.31.75-.11,0-5.44,1h-.19a58.31,58.31,0,0,0-6.08,0,21.46,21.46,0,0,1-3.63,0,.83.83,0,0,1-.52-.21l-.22-.2a.85.85,0,0,1,0-1.28l.23-.2A.82.82,0,0,1,982.37,95.2Z"/></g></svg>