<svg xmlns="http://www.w3.org/2000/svg" xmlns:xlink="http://www.w3.org/1999/xlink" viewBox="0 0 1920 1080"><defs><style>.cls-1{fill:url(#radial-gradient);}.cls-2{fill:url(#radial-gradient-2);}.cls-3{fill:url(#radial-gradient-3);}.cls-4{fill:url(#linear-gradient);}.cls-5{fill:url(#linear-gradient-2);}.cls-6{fill:#0d4412;}.cls-7{fill:url(#linear-gradient-3);}.cls-8{fill:url(#linear-gradient-4);}.cls-9{fill:#0d4b12;}.cls-10{fill:#0d5512;}.cls-11{fill:#0d4e12;}.cls-12{fill:#f2f2f2;}</style><radialGradient id="radial-gradient" cx="960" cy="540" r="778.85" gradientUnits="userSpaceOnUse"><stop offset="0" stop-color="#f15a24"/><stop offset="0.03" stop-color="#e35624"/><stop offset="0.1" stop-color="#be4c23"/><stop offset="0.19" stop-color="#833c22"/><stop offset="0.29" stop-color="#312521"/><stop offset="0.31" stop-color="#212121"/><stop offset="0.33" stop-color="#1d1e1e"/><stop offset="0.44" stop-color="#121314"/><stop offset="0.59" stop-color="#0b0d0f"/><stop offset="1" stop-color="#090b0d"/></radialGradient><radialGradient id="radial-gradient-2" cx="816.5" cy="545.5" r="188.88" gradientUnits="userSpaceOnUse"><stop offset="0" stop-color="#3d77a8"/><stop offset="0.15" stop-color="#3477ab"/><stop offset="0.39" stop-color="#1a76b5"/><stop offset="0.59" stop-color="#0075be"/><stop offset="0.99" stop-color="#005b97"/></radialGradient><radialGradient id="radial-gradient-3" cx="1052.57" r="200.36" xlink:href="#radial-gradient-2"/><linearGradient id="linear-gradient" x1="719.79" y1="656.31" x2="860.9" y2="597.2" gradientUnits="userSpaceOnUse"><stop offset="0" stop-color="#0d3512"/><stop offset="1" stop-color="#0d5412"/></linearGradient><linearGradient id="linear-gradient-2" x1="773.8" y1="373.54" x2="797.8" y2="403.13" gradientUnits="userSpaceOnUse"><stop offset="0" stop-color="#0d3512"/><stop offset="0.97" stop-color="#0d5412"/></linearGradient><linearGradient id="linear-gradient-3" x1="1192.92" y1="557.5" x2="1005.63" y2="557.5" xlink:href="#linear-gradient"/><linearGradient id="linear-gradient-4" x1="1153.4" y1="394.78" x2="1117.13" y2="419.85" xlink:href="#linear-gradient"/></defs><g id="space"><rect class="cls-1" width="1920" height="1080"/></g><g id="earth"><path class="cls-2" d="M929,313,823,337c-52.8,22.37-95.48,61.56-116.17,115l-7.55,19.53a211.84,211.84,0,0,0-4.94,138.68h0C712.58,669.65,750.93,730.41,808,755l115,23,25-147.66L817,556.27,942,406Z"/><path class="cls-3" d="M990,310l23,94L895,570l123,66L993,781l122-68.07a212.29,212.29,0,0,0,82.41-104.64h0a212.33,212.33,0,0,0-1.72-149.42L1193,452a212.35,212.35,0,0,0-114.19-118.14Z"/><path class="cls-4" d="M813,749V692.81C813,691,823,668,823,668l16-9,5-12,9-8-6-11-6-7,12-7.66L863,605V581.87H851.23L843,573H813l-9-8.9L801,554h-4.84l-.16-9-8-8H773.34L769,531l-4-7-4-9H742.65L732,525l-12,19-10,24v18.59L722,610l11.5,11.5,6.79,10.5,8.21,11.5,1,16,19,37,18,30.93,11,23.47Z"/><path class="cls-5" d="M867.5,327.22,848,346l-8,10s3,11,4,13a68.18,68.18,0,0,0,5,7h4.75l3.25,4-8,5h-9v9.1L825,389l-12-2-22,11s-17,10-20,13-17,15-17,15l-7,20-6,9s-7-8-7-10V426.36S722,434,721,437s-10.83,18-10.83,18l-4.72-3.89,8.39-15A211.27,211.27,0,0,1,735,405.21l5.17-6.28a211.51,211.51,0,0,1,27.71-27.87h0a210.72,210.72,0,0,1,33.78-23l8.49-4.65C821.58,337.15,834.62,335,847,331l13-2Z"/><path class="cls-6" d="M756.5,483.5c-3,2-10,3-10,3l-6-7h-7.29l-6.71-7H734l7.5,3.15,9,3.85Z"/><path class="cls-7" d="M1109.5,700.5l-9-6V676.07l4.5-15.73,4.5-16.53V627.29l7-18.79,7-14s-11-13.41-11.5-15.21-11.5-11-11.5-11l11.5-23.61h-11.5l-15-10.17-17,13.4-17-7.4-11.31,7.4-15-13.4-11.74-6-4-3h-7.86l-4.14-15,5-16,3.86-16-3.94-7,3.08-10,8-12,6-7,8-5-2-10,10-5h8.63l10.37-5s14-3,16-3h12.18l2.82,10a42.84,42.84,0,0,1,10,3c4,2,12,4,12,4l7,5,3-9,13,4,12,6s11.14,17,12.57,17,11.17,13,11.8,17,11.8,14,11.8,14l13.83,21s8,15,8,18v23.4l-13.17,9.6s1.17,21,.17,24-3,21-4,24-12,23-12,23l-11,28-10,27s-11,8-11,5,1-10,1-10l-14,12-13,5Z"/><path class="cls-6" d="M1168.5,659.5l13-21,6-15s-6.51-5-7.25,0-9,13.78-7.87,16.89S1168.5,659.5,1168.5,659.5Z"/><path class="cls-8" d="M1144.5,434.5l7-8s-6-7-7-9-13-13-13-13-15-8-18-10-12.5-4.68-12.5-4.68-10.5-.32-13.5-.32-5.18,3.46-5.18,3.46l8.18,7.54-8.18,2.69-2.82-4.69-4-7L1063,388.24l-9.54,5.26v12.05l-9.73,5.95s-7.27-4-10.27-4-10.19-5-10.19-5v-4l-3.94-10.86h17.07l6.06-4.11-3-4H1032s6.54-9,9.54-9h7.77l4.23-9.8h12.3V348.9l6.7,5.6v3.84l11-1.84,11-1,6.5-1.88,8.79-1.47,11.91,8.55,8.45,6.8,5.74,5,10.81,10.39L1156.88,394l7.47,9.18,8.14,11.22L1180,426.2l15.71,31.57L1200,469l-10.5-8.37-9.5-9.13L1170.5,441l-12-7.46Z"/><polygon class="cls-9" points="915.5 345.5 924.41 345.5 930.5 341.1 923 337.95 915.5 337.95 911.63 337.95 911.63 341.73 915.5 345.5"/><path class="cls-9" d="M915.75,327.72l-13.12,4.72s16.12,7,9,5.51-21,.2-21,.2L877.2,345.5l-7.08,7.4L863,349v-7.24l7.5-7.23,9-7,6-5Z"/><polygon class="cls-10" points="1014.5 370.5 1021.5 366.5 1021.5 357.41 1014.5 357.41 1009.51 363.95 1014.5 370.5"/><polygon class="cls-10" points="1026.03 351.9 1026.03 360.56 1021.5 370.5 1023.76 375.51 1033.11 370.5 1033.11 357.41 1033.11 351.9 1026.03 351.9"/><polygon class="cls-11" points="1080.32 344.5 1073.24 351.9 1070.09 344.5 1061.44 342.7 1058.19 351.9 1046.5 347.18 1041.77 340.73 1046.5 333.5 1080.32 344.5"/></g><g id="stars"><path class="cls-12" d="M141.53,615l1.38-.36a25.27,25.27,0,0,0,18.69-21.75L163.52,575l1.21,16.6a25.29,25.29,0,0,0,18.78,22.61l2.87.75-1.47.3a25.27,25.27,0,0,0-20.07,22L163.31,651l-2-14.72A25.27,25.27,0,0,0,141.53,615Z"/><path class="cls-12" d="M434.53,877l1.38-.36a25.27,25.27,0,0,0,18.69-21.75L456.52,837l1.21,16.6a25.29,25.29,0,0,0,18.78,22.61l2.87.75-1.47.3a25.27,25.27,0,0,0-20.07,22L456.31,913l-2-14.72A25.27,25.27,0,0,0,434.53,877Z"/><path class="cls-12" d="M533.53,289l1.38-.36a25.27,25.27,0,0,0,18.69-21.75L555.52,249l1.21,16.6a25.29,25.29,0,0,0,18.78,22.61l2.87.75-1.47.3a25.27,25.27,0,0,0-20.07,22L555.31,325l-2-14.72A25.27,25.27,0,0,0,533.53,289Z"/><path class="cls-12" d="M1548.53,251l1.38-.36a25.27,25.27,0,0,0,18.69-21.75l1.92-17.85,1.21,16.6a25.29,25.29,0,0,0,18.78,22.61l2.87.75-1.47.3a25.27,25.27,0,0,0-20.07,22L1570.31,287l-2-14.72A25.27,25.27,0,0,0,1548.53,251Z"/><path class="cls-12" d="M1714.53,812l1.38-.36a25.27,25.27,0,0,0,18.69-21.75l1.92-17.85,1.21,16.6a25.29,25.29,0,0,0,18.78,22.61l2.87.75-1.47.3a25.27,25.27,0,0,0-20.07,22L1736.31,848l-2-14.72A25.27,25.27,0,0,0,1714.53,812Z"/><path class="cls-12" d="M1480.53,589l1.38-.36a25.27,25.27,0,0,0,18.69-21.75l1.92-17.85,1.21,16.6a25.29,25.29,0,0,0,18.78,22.61l2.87.75-1.47.3a25.27,25.27,0,0,0-20.07,22L1502.31,625l-2-14.72A25.27,25.27,0,0,0,1480.53,589Z"/><path class="cls-12" d="M1350.53,812l1.38-.36a25.27,25.27,0,0,0,18.69-21.75l1.92-17.85,1.21,16.6a25.29,25.29,0,0,0,18.78,22.61l2.87.75-1.47.3a25.27,25.27,0,0,0-20.07,22L1372.31,848l-2-14.72A25.27,25.27,0,0,0,1350.53,812Z"/><path class="cls-12" d="M1104.53,970.14l.72-.19a13.23,13.23,0,0,0,9.78-11.38l1-9.35.63,8.69a13.21,13.21,0,0,0,9.83,11.83l1.5.4-.77.15a13.22,13.22,0,0,0-10.5,11.5l-.81,7.21-1-7.7a13.22,13.22,0,0,0-10.35-11.16Z"/><path class="cls-12" d="M777.53,914.14l.72-.19A13.23,13.23,0,0,0,788,902.57l1-9.35.63,8.69a13.21,13.21,0,0,0,9.83,11.83l1.5.4-.77.15a13.22,13.22,0,0,0-10.5,11.5l-.81,7.21-1-7.7a13.22,13.22,0,0,0-10.35-11.16Z"/><path class="cls-12" d="M521.53,614.14l.72-.19A13.23,13.23,0,0,0,532,602.57l1-9.35.63,8.69a13.21,13.21,0,0,0,9.83,11.83l1.5.4-.77.15a13.22,13.22,0,0,0-10.5,11.5l-.81,7.21-1-7.7a13.22,13.22,0,0,0-10.35-11.16Z"/><path class="cls-12" d="M899.53,212.14l.72-.19A13.23,13.23,0,0,0,910,200.57l1-9.35.63,8.69a13.21,13.21,0,0,0,9.83,11.83l1.5.4-.77.15a13.22,13.22,0,0,0-10.5,11.5l-.81,7.21-1-7.7a13.22,13.22,0,0,0-10.35-11.16Z"/><path class="cls-12" d="M140.53,138.14l.72-.19A13.23,13.23,0,0,0,151,126.57l1-9.35.63,8.69a13.21,13.21,0,0,0,9.83,11.83l1.5.4-.77.15a13.22,13.22,0,0,0-10.5,11.5l-.81,7.21-1-7.7a13.22,13.22,0,0,0-10.35-11.16Z"/><path class="cls-12" d="M1759.53,178.14l.72-.19a13.23,13.23,0,0,0,9.78-11.38l1-9.35.63,8.69a13.21,13.21,0,0,0,9.83,11.83l1.5.4-.77.15a13.22,13.22,0,0,0-10.5,11.5l-.81,7.21-1-7.7a13.22,13.22,0,0,0-10.35-11.16Z"/></g></svg>