<svg id="Layer_1" data-name="Layer 1" xmlns="http://www.w3.org/2000/svg" viewBox="0 0 84 85"><defs><style>.cls-1{fill:#fff;}</style></defs><path class="cls-1" d="M42,18A25,25,0,1,1,17,43,25,25,0,0,1,42,18m0-3A28,28,0,1,0,70,43,28,28,0,0,0,42,15Z"/><polygon class="cls-1" points="39 0 39 32 42 37 45 32 45 0 39 0"/><polygon class="cls-1" points="39 85 39 53 42 48 45 53 45 85 39 85"/><polygon class="cls-1" points="84 46 52 46 47 43 52 40 84 40 84 46"/><polygon class="cls-1" points="0 46 32 46 37 43 32 40 0 40 0 46"/></svg>