<svg xmlns="http://www.w3.org/2000/svg" xmlns:xlink="http://www.w3.org/1999/xlink" viewBox="0 0 364 364"><defs><style>.cls-1{fill:url(#radial-gradient);}.cls-2{fill:#82868a;}.cls-3{fill:#152024;}</style><radialGradient id="radial-gradient" cx="390.58" cy="42.7" r="215.14" gradientTransform="translate(-149.02 145.78) scale(0.85 0.85)" gradientUnits="userSpaceOnUse"><stop offset="0.56" stop-color="#bb5430"/><stop offset="0.6" stop-color="#bc5830"/><stop offset="0.64" stop-color="#c16330"/><stop offset="0.68" stop-color="#c87530"/><stop offset="0.69" stop-color="#ca7a30"/><stop offset="1" stop-color="#090b0d"/></radialGradient></defs><g id="meteoroid"><circle class="cls-1" cx="181.38" cy="181.9" r="182"/><polygon class="cls-2" points="344.97 181.02 346.14 199.14 344.27 217.36 336.91 234.14 327.9 249.82 318.99 265.46 306.23 278.18 292.66 289.68 280.35 302.81 265.28 312.59 249.52 321.4 232.7 328.11 214.72 330.57 197.03 333.5 179.09 332.24 161.32 331.89 143.14 332.18 124.99 329.72 108.31 322.23 93.88 310.84 78.33 302.1 63 292.53 50.18 279.79 39.39 265.32 28.35 250.88 25.4 232.5 18.2 216.25 11 199.27 13.67 181.02 11.36 162.82 16.2 145.27 20.94 127.77 27.99 110.97 40.58 97.57 51.13 83.11 64.12 70.79 78.92 60.77 92 47.84 109.92 43.58 126.04 35.71 143.97 34.01 161.44 31.32 179.09 25.61 197.18 26.93 215.06 29.79 232.89 33.3 248.32 43.45 266.61 47.07 281.41 57.74 292.64 72.4 304.85 85.11 316.52 98.35 327.49 112.45 337.5 127.68 342.75 145.08 343.36 163.26 344.97 181.02"/><polygon class="cls-3" points="297.83 252.44 299.08 259.5 297.03 266.27 293.38 272.31 291.31 279.08 286.31 284.03 282.23 289.77 276.69 294.23 269.85 296.19 263.88 300.13 256.91 301.14 249.92 301.32 242.81 301.66 236.02 299.6 229.54 297.22 223.46 293.58 217.73 289.65 213.01 284.46 207.72 279.59 205.46 272.75 203.01 266.21 202.94 259.21 202.12 252.42 200.62 245.37 203.53 238.78 204.16 231.53 208.62 225.84 212.98 220.41 217.18 214.72 223.23 210.85 229.27 207.2 236.26 205.94 243.04 204.45 249.88 202.64 256.86 203.86 263.61 205.71 270.22 208.05 276.33 211.25 282.72 214.51 287.86 219.49 292.2 225.24 295.25 231.75 296.19 238.81 299.1 245.41 297.83 252.44"/><polygon class="cls-3" points="128.17 249.14 129.42 256.2 127.37 262.97 123.72 269.01 121.65 275.79 116.64 280.73 112.57 286.47 107.02 290.93 100.19 292.89 94.22 296.83 87.25 297.84 80.26 298.02 73.14 298.37 66.36 296.3 59.88 293.92 53.8 290.28 48.06 286.36 43.35 281.17 38.06 276.3 35.8 269.46 33.35 262.92 33.28 255.91 32.46 249.12 30.96 242.07 33.87 235.48 34.5 228.23 38.96 222.55 43.32 217.11 47.52 211.42 53.57 207.55 59.61 203.91 66.6 202.64 73.38 201.16 80.22 199.34 87.2 200.57 93.94 202.41 100.56 204.75 106.67 207.95 113.06 211.22 118.2 216.19 122.54 221.94 125.59 228.46 126.53 235.51 129.44 242.11 128.17 249.14"/><polygon class="cls-3" points="286.13 69.94 282.36 76.52 275.3 80.03 267.46 80.92 259.67 79.9 252.19 77.64 245.09 74.45 238.93 70.97 233.33 66.66 227.43 62.59 223.65 56.51 219.34 50.82 217.32 43.92 217.89 36.67 223.31 31.1 229.93 26.98 237.78 27.13 245.56 27.25 252.82 30.09 260.01 32.9 266.33 36.07 271.93 40.39 277.18 45.08 281.49 50.63 285.32 56.49 287.61 63.17 286.13 69.94"/><polygon class="cls-3" points="343.61 204.66 337.04 202.56 332.07 197.53 328.58 191.27 325.2 184.77 323.78 177.59 323.24 170.32 323.07 162.96 323.99 155.67 325.61 148.53 327.84 141.51 332.6 135.98 338.79 132.61 345.71 134.32 351.25 139.21 353.82 146.12 357.11 152.64 359.02 159.72 359.9 167.01 358.82 174.4 358.46 181.72 356.83 188.87 353.78 195.46 349.82 201.41 343.61 204.66"/><polygon class="cls-3" points="125.31 333.39 126.41 326.04 132.42 321.43 139.34 318.84 145.98 315.71 153.24 314.55 160.28 312.11 167.66 311.66 175.04 311.49 182.41 311.73 189.63 313.39 196.82 314.63 204.09 315.76 211.1 318.02 217.05 322.36 222.5 326.94 224.6 333.39 222.49 339.83 217.13 344.54 211.1 348.77 204.22 351.47 196.76 351.85 189.73 354.18 182.45 355.7 175.04 354.26 167.73 354.16 160.5 353.06 153.21 352.38 145.96 351.12 139.37 347.86 132.86 344.67 127.54 339.86 125.31 333.39"/><polygon class="cls-3" points="241.39 155.04 236.22 160.21 230.68 165.03 225.88 170.55 221.37 176.35 216.36 181.67 210.82 186.49 206.09 192.08 200.42 196.79 196 202.7 186.67 202.09 186.51 202.21 184.94 196.66 187.11 191.37 192.27 186.19 197.63 181.21 202.53 175.78 207.77 170.67 212.37 164.96 217.84 160.08 222.42 154.33 227.53 149.09 232.41 143.63 241.93 144.32 241.43 144.71 243.67 149.8 241.39 155.04"/><polygon class="cls-3" points="93.55 140.01 97.38 146.5 100.72 153.3 105.05 159.48 109.78 165.41 113.83 171.76 117.16 178.57 121.59 184.69 124.77 191.61 129.64 197.46 130.76 203.07 128.29 208.3 128.18 208.17 118.83 206.48 114.98 200 111.42 193.34 107.21 187.09 103.47 180.54 98.86 174.53 95.44 167.78 90.79 161.8 86.87 155.35 82.63 149.11 81.6 143.38 84.73 138.83 84.21 138.22 93.55 140.01"/><polygon class="cls-3" points="189.68 296.24 182.05 296.79 174.42 297.17 166.79 297.73 159.13 297.62 151.51 298.39 143.89 298.91 136.22 298.82 128.56 298.7 121.37 292.1 121.92 292.07 128.02 284.55 135.65 284.06 143.32 284.33 150.92 283.37 158.59 283.57 166.15 281.82 173.81 281.79 181.44 281.19 189.08 280.93 196.15 288.26 195.75 288.27 189.68 296.24"/><polyline class="cls-3" points="120.28 31.95 126.84 35.06 133.42 38.15 139.86 41.52 146.44 44.62 153.12 47.51"/><polyline class="cls-3" points="283.58 60.51 286.36 67.53 289.56 74.38 292.44 81.38 295.79 88.16"/><polyline class="cls-3" points="113.77 312.7 117.96 318.73 122.12 324.79 126.14 330.96 130.68 336.75"/><polyline class="cls-3" points="348.9 198.67 345.41 205.15 341.75 211.55 338.58 218.22 335 224.67"/><polyline class="cls-3" points="221.88 36.48 216.46 40.94 210.77 45.06 205.34 49.55 199.76 53.82"/><polyline class="cls-3" points="237.95 316.87 233.23 322.36 228.47 327.81 223.62 333.21 218.96 338.75"/><polyline class="cls-3" points="342.11 138.78 336.5 134.64 330.54 131.03 324.77 127.12 318.94 123.3"/><polyline class="cls-3" points="33.82 148.68 33 141.83 32.52 134.93 31.37 128.13 29.96 121.36 28.99 114.52 28.51 107.61"/><polygon class="cls-3" points="133.11 34.03 133.7 41.23 135.39 48.19 132.34 54.72 131.4 61.82 127.94 68 124.02 73.84 120.34 79.86 115.63 85.09 110.86 90.24 106 95.29 100.85 100.07 95.2 104.23 89.94 109.04 83.86 112.73 77.81 116.43 71.85 120.39 65.36 123.4 58.25 124.57 51.59 127.34 44.4 126.51 37.17 127.51 30.78 124.08 25.45 119.22 24.27 112.22 23.24 105.25 25.86 98.65 27.21 91.71 31.47 86 33.62 79.12 38.76 74.14 42.36 68.04 47.2 62.93 52.57 58.37 56.99 52.8 62.78 48.74 68.98 45.21 74.68 41.03 80.07 36.21 86.25 32.59 93.07 30.31 100.08 28.88 106.95 27.4 113.9 26.11 120.84 27.2 127.02 30.09 133.11 34.03"/></g></svg>