<svg xmlns="http://www.w3.org/2000/svg" xmlns:xlink="http://www.w3.org/1999/xlink" viewBox="0 0 364 364"><defs><style>.cls-1{fill:url(#radial-gradient);}.cls-2{fill:#82868a;}.cls-3{fill:#152024;}</style><radialGradient id="radial-gradient" cx="422.73" cy="42.41" r="205.53" gradientTransform="translate(-193.81 145.1) scale(0.89 0.89)" gradientUnits="userSpaceOnUse"><stop offset="0.56" stop-color="#bb5430"/><stop offset="0.6" stop-color="#bc5830"/><stop offset="0.64" stop-color="#c16330"/><stop offset="0.68" stop-color="#c87530"/><stop offset="0.69" stop-color="#ca7a30"/><stop offset="1" stop-color="#090b0d"/></radialGradient></defs><g id="meteoroid"><circle class="cls-1" cx="180.53" cy="182.65" r="182"/><polygon class="cls-2" points="347.24 184 348.44 202.59 346.52 221.28 338.97 238.5 329.73 254.6 320.58 270.64 307.49 283.69 293.57 295.49 280.93 308.96 265.47 319 249.3 328.04 232.04 334.93 213.59 337.45 195.43 340.45 177.03 339.16 158.8 338.81 140.14 339.1 121.52 336.57 104.41 328.89 89.6 317.2 73.64 308.24 57.91 298.41 44.76 285.34 33.68 270.5 22.36 255.68 19.33 236.82 11.95 220.15 4.55 202.72 7.29 184 4.92 165.32 9.88 147.32 14.75 129.36 21.99 112.11 34.9 98.37 45.73 83.53 59.06 70.89 74.25 60.61 87.67 47.34 106.05 42.97 122.59 34.9 141 33.15 158.92 30.39 177.03 24.53 195.59 25.89 213.94 28.82 232.24 32.42 248.07 42.84 266.83 46.55 282.02 57.5 293.54 72.55 306.08 85.58 318.05 99.17 329.31 113.63 339.57 129.26 344.96 147.12 345.59 165.78 347.24 184"/><polygon class="cls-3" points="298.87 257.28 300.16 264.52 298.05 271.47 294.3 277.67 292.18 284.62 287.04 289.69 282.86 295.58 277.17 300.16 270.15 302.17 264.04 306.21 256.88 307.25 249.71 307.43 242.41 307.79 235.45 305.67 228.8 303.23 222.56 299.49 216.68 295.47 211.84 290.14 206.41 285.14 204.09 278.12 201.58 271.41 201.5 264.23 200.66 257.26 199.12 250.02 202.1 243.26 202.76 235.82 207.33 229.99 211.81 224.41 216.12 218.57 222.32 214.6 228.52 210.86 235.69 209.56 242.65 208.04 249.67 206.18 256.83 207.44 263.75 209.33 270.54 211.73 276.81 215.02 283.36 218.37 288.64 223.47 293.09 229.37 296.22 236.06 297.19 243.3 300.17 250.06 298.87 257.28"/><polygon class="cls-3" points="124.78 253.9 126.07 261.14 123.96 268.09 120.22 274.28 118.09 281.24 112.95 286.31 108.78 292.2 103.08 296.77 96.07 298.79 89.95 302.83 82.8 303.87 75.62 304.05 68.32 304.4 61.36 302.29 54.71 299.84 48.47 296.11 42.59 292.08 37.75 286.75 32.32 281.76 30 274.74 27.49 268.03 27.41 260.84 26.57 253.88 25.03 246.64 28.02 239.88 28.67 232.44 33.24 226.61 37.72 221.03 42.03 215.19 48.24 211.22 54.43 207.48 61.6 206.18 68.56 204.66 75.58 202.8 82.74 204.05 89.66 205.95 96.45 208.35 102.72 211.63 109.27 214.98 114.55 220.09 119 225.99 122.13 232.67 123.1 239.91 126.08 246.68 124.78 253.9"/><polygon class="cls-3" points="286.87 70.02 283.89 76.04 277.99 79.72 271.18 81.17 264.26 80.89 257.52 79.51 251.04 77.32 244.78 74.61 238.58 70.83 232.09 67.4 227.39 61.74 222.03 56.76 218.3 50.42 216.08 43.34 217.85 36.25 220.84 30.05 227.29 27.54 233.81 25.49 240.61 26.44 247.31 27.39 253.91 29.07 260.06 32 266.41 35.48 272.14 39.89 277.75 44.45 282.7 49.77 286.39 56.06 288.61 63.05 286.87 70.02"/><polygon class="cls-3" points="345.85 208.25 339.1 206.1 334 200.94 330.42 194.51 326.95 187.84 325.49 180.48 324.94 173.02 324.76 165.47 325.71 157.98 327.38 150.66 329.66 143.46 334.54 137.78 340.9 134.33 348 136.08 353.68 141.09 356.32 148.19 359.69 154.88 361.65 162.14 362.56 169.62 361.45 177.21 361.08 184.72 359.41 192.05 356.28 198.81 352.22 204.92 345.85 208.25"/><polygon class="cls-3" points="121.84 340.34 122.98 332.8 129.14 328.07 136.24 325.41 143.06 322.2 150.51 321.01 157.74 318.5 165.31 318.05 172.87 317.87 180.44 318.12 187.84 319.82 195.22 321.1 202.68 322.25 209.88 324.57 215.98 329.02 221.57 333.73 223.72 340.34 221.57 346.95 216.06 351.78 209.88 356.12 202.82 358.9 195.16 359.29 187.95 361.67 180.48 363.23 172.87 361.75 165.37 361.65 157.95 360.52 150.47 359.82 143.04 358.53 136.27 355.19 129.59 351.92 124.13 346.99 121.84 340.34"/><polygon class="cls-3" points="240.96 157.34 235.65 162.64 229.97 167.59 225.04 173.25 220.41 179.2 215.27 184.67 209.59 189.61 204.73 195.35 198.91 200.18 194.39 206.24 184.81 205.61 184.64 205.74 183.04 200.04 185.26 194.61 190.55 189.3 196.06 184.19 201.09 178.62 206.46 173.38 211.18 167.51 216.8 162.51 221.49 156.61 226.74 151.24 231.75 145.63 241.51 146.34 241 146.74 243.29 151.96 240.96 157.34"/><polygon class="cls-3" points="89.26 141.92 92.78 147.92 95.79 154.24 99.83 159.92 104.27 165.36 108.02 171.22 111.02 177.55 115.16 183.17 118 189.61 122.59 194.96 126.22 200.91 127.68 206.65 124.8 211.86 124.8 211.86 115.35 210.03 112.11 203.85 108.21 198.09 104.78 192.02 100.46 186.51 97.36 180.25 93 174.76 89.39 168.81 85.45 163.06 81.92 157.05 78.86 150.74 76.93 145.36 79.97 140.44 79.53 139.92 89.26 141.92"/><polygon class="cls-3" points="164 308.85 156 309.01 148 309.01 140.76 307.67 134.03 304.9 127.18 302.44 121.42 297.86 119.84 295.56 119.02 289.86 126.45 288.32 133.99 288.39 141.5 288.11 148.99 287.51 156.53 287.71 163.99 286.6 171.54 286.73 178.94 284.81 186.47 284.69 193.97 283.97 190.38 292.56 189.48 293.7 184.06 298.85 177.56 302.49 171.07 306.18 164 308.85"/><polyline class="cls-3" points="116.68 31.04 123.42 34.23 130.16 37.39 136.78 40.85 143.53 44.04 150.38 47"/><polyline class="cls-3" points="284.25 60.34 287.1 67.55 290.39 74.57 293.33 81.75 296.77 88.72"/><polyline class="cls-3" points="110 319.11 114.31 325.3 118.57 331.52 122.69 337.85 127.36 343.79"/><polyline class="cls-3" points="351.27 202.1 347.69 208.76 343.94 215.33 340.68 222.17 337.01 228.79"/><polyline class="cls-3" points="220.94 35.68 215.37 40.26 209.53 44.49 203.97 49.09 198.24 53.48"/><polyline class="cls-3" points="237.42 323.39 232.58 329.02 227.7 334.62 222.73 340.16 217.94 345.85"/><polyline class="cls-3" points="344.3 140.65 338.55 136.4 332.43 132.7 326.51 128.69 320.53 124.77"/><polyline class="cls-3" points="27.97 150.81 27.13 143.78 26.63 136.71 25.45 129.72 24.01 122.78 23.02 115.76 22.52 108.67"/><polygon class="cls-3" points="129.85 33.17 130.45 40.55 132.19 47.7 129.06 54.4 128.09 61.69 124.54 68.03 120.52 74.03 116.75 80.19 111.92 85.57 107.02 90.85 102.03 96.03 96.75 100.93 90.95 105.21 85.55 110.14 79.31 113.92 73.11 117.72 66.99 121.78 60.34 124.88 53.03 126.07 46.2 128.91 38.83 128.06 31.41 129.09 24.85 125.57 19.38 120.59 18.18 113.41 17.11 106.25 19.8 99.48 21.19 92.35 25.56 86.5 27.76 79.44 33.04 74.32 36.74 68.07 41.7 62.83 47.21 58.15 51.74 52.43 57.68 48.27 64.05 44.64 69.89 40.35 75.43 35.41 81.77 31.69 88.77 29.36 95.95 27.88 103.01 26.36 110.14 25.05 117.26 26.16 123.61 29.13 129.85 33.17"/></g></svg>