<svg xmlns="http://www.w3.org/2000/svg" xmlns:xlink="http://www.w3.org/1999/xlink" viewBox="0 0 364 364"><defs><style>.cls-1{fill:url(#radial-gradient);}.cls-2{fill:#82868a;}.cls-3{fill:#152024;}</style><radialGradient id="radial-gradient" cx="468.7" cy="39.99" r="205.53" gradientTransform="translate(-234.51 146.24) scale(0.89 0.89)" gradientUnits="userSpaceOnUse"><stop offset="0.56" stop-color="#bb5430"/><stop offset="0.6" stop-color="#bc5830"/><stop offset="0.64" stop-color="#c16330"/><stop offset="0.68" stop-color="#c87530"/><stop offset="0.69" stop-color="#ca7a30"/><stop offset="1" stop-color="#090b0d"/></radialGradient></defs><g id="meteoroid"><circle class="cls-1" cx="180.53" cy="181.65" r="182"/><polygon class="cls-2" points="347.24 182 348.44 200.59 346.52 219.28 338.97 236.5 329.73 252.6 320.58 268.64 307.49 281.69 293.57 293.49 280.93 306.96 265.47 317 249.3 326.04 232.04 332.93 213.59 335.45 195.43 338.45 177.03 337.16 158.8 336.81 140.14 337.1 121.52 334.57 104.41 326.89 89.6 315.2 73.64 306.24 57.91 296.41 44.76 283.34 33.68 268.5 22.36 253.68 19.33 234.82 11.95 218.15 4.55 200.72 7.29 182 4.92 163.32 9.88 145.32 14.75 127.36 21.99 110.11 34.9 96.37 45.73 81.53 59.06 68.89 74.25 58.61 87.67 45.34 106.05 40.97 122.59 32.9 141 31.15 158.92 28.39 177.03 22.53 195.59 23.89 213.94 26.82 232.24 30.42 248.07 40.84 266.83 44.55 282.02 55.5 293.54 70.55 306.08 83.58 318.05 97.17 329.31 111.63 339.57 127.26 344.96 145.12 345.59 163.78 347.24 182"/><polygon class="cls-3" points="243.31 247.52 249.37 243.44 255.03 238.89 260.93 234.62 266.96 230.56 272.27 227.31 277.6 224.01 281.33 219.5 276.88 214.69 271.69 209.89 265.29 206.82 258.75 203.99 251.7 203.21 244.69 202.6 237.77 202.05 231.31 204.65 225.17 207.53 218.77 209.87 213.05 213.54 207.98 218.51 213.33 224.27 219.69 228.47 226.16 232.55 231.09 238.45 237.7 242.31 243.31 247.52"/><polygon class="cls-3" points="202.13 226.07 198.82 232.65 196.31 239.25 195.1 246.25 195.05 253.28 195.41 261.28 197.24 269.09 200.03 277.02 206.63 272.53 212.21 268.67 218.09 265.24 223.2 260.69 228.72 256.67 235.32 253.21 228.87 249.11 223.68 244.37 217.89 240.38 212.63 235.76 207.31 231.18 202.13 226.07"/><polygon class="cls-3" points="277.72 276.19 284.97 283.47 288.66 276.27 292.26 269.1 293.81 261.23 294.93 253.3 294.53 246.51 292.74 239.99 291.05 233.42 287.83 227.49 282.71 232.09 276.85 235.81 271.8 240.56 264.66 244.44 258.38 249.61 251.07 253.87 256.92 258.24 262.01 262.86 267.25 267.29 272.65 271.55 277.72 276.19"/><polygon class="cls-3" points="270.08 282.64 264.14 278.9 259.02 274.21 254.09 269.37 248.89 264.83 243.81 260.12 242.79 259.29 241.61 260.23 235.53 264.67 228.87 268.21 223.34 273.36 217.42 278.05 210.68 281.47 205.53 284.96 211.57 289.38 216.69 294.73 222.96 298.89 229.75 302.18 237.13 303.78 244.69 304.47 252.14 303.95 259.45 302.38 266.4 299.54 272.24 294.98 278.57 290.81 274.49 286.36 270.08 282.64"/><polygon class="cls-3" points="87.45 241.47 92.42 238.12 97.96 235.07 102.35 230.51 108.59 226 114.98 221.77 120.83 217.63 116.55 212.94 111.46 208.1 104.79 205.68 98.34 203.18 91.56 201.51 84.6 201.53 77.27 201.07 70.15 202.99 63.38 205.75 56.91 209.17 51.53 214.06 57.38 218.75 63.79 222.86 69.32 228.13 75.04 233.17 81.72 236.86 87.45 241.47"/><polygon class="cls-3" points="58.3 231.71 51.75 226.18 44.74 220.6 41.69 227.03 38.35 232.69 35.48 238.69 34.6 245.28 34.83 251.88 35.9 259.28 36.61 266.77 39.12 274.49 45.79 270.14 51.96 266.08 57.67 261.31 64.22 257.84 70.69 254.19 76.08 248.97 79.76 247.38 73.75 243.79 68.7 239.63 63.35 235.86 58.3 231.71"/><polygon class="cls-3" points="119 273.88 125.78 280.63 129.58 274.11 132.97 267.17 133.71 259.48 134.12 251.89 134.47 245 132.25 238.46 131.49 231.43 127.37 226.42 121.2 229.66 115.66 234.76 109.07 238.37 102.14 243.66 94.75 248.58 100.05 253.45 104.39 258.93 109.81 263.39 114.07 268.94 119 273.88"/><polygon class="cls-3" points="114.08 281.59 109.18 275.94 103.41 271.16 97.36 266.66 92.24 261.21 87.27 255.67 86.75 254.75 82.76 256.83 76.81 260.54 71 264.44 65.25 268.48 58.91 271.6 53.79 276.46 49.57 280.03 44.58 282.12 49.52 288.05 56.27 291.86 62.26 296.66 69.29 300.07 76.76 302.45 84.59 302.97 92.35 302.52 99.93 300.78 107.17 297.94 113.8 293.82 118.87 288.41 114.08 281.59"/><polygon class="cls-3" points="286.87 68.02 283.89 74.04 277.99 77.72 271.18 79.17 264.26 78.89 257.52 77.51 251.04 75.32 244.78 72.61 238.58 68.83 232.09 65.4 227.39 59.74 222.03 54.76 218.3 48.42 216.08 41.34 217.85 34.25 220.84 28.05 227.29 25.54 233.81 23.49 240.61 24.44 247.31 25.39 253.91 27.07 260.06 30 266.41 33.48 272.14 37.89 277.75 42.45 282.7 47.77 286.39 54.06 288.61 61.05 286.87 68.02"/><polygon class="cls-3" points="345.85 206.25 339.1 204.1 334 198.94 330.42 192.51 326.95 185.84 325.49 178.48 324.94 171.02 324.76 163.47 325.71 155.98 327.38 148.66 329.66 141.46 334.54 135.78 340.9 132.33 348 134.08 353.68 139.09 356.32 146.19 359.69 152.88 361.65 160.14 362.56 167.62 361.45 175.21 361.08 182.72 359.41 190.05 356.28 196.81 352.22 202.92 345.85 206.25"/><polygon class="cls-3" points="121.84 338.34 122.98 330.8 129.14 326.07 136.24 323.41 143.06 320.2 150.51 319.01 157.74 316.5 165.31 316.05 172.87 315.87 180.44 316.12 187.84 317.82 195.22 319.1 202.68 320.25 209.88 322.57 215.98 327.02 221.57 331.73 223.72 338.34 221.57 344.95 216.06 349.78 209.88 354.12 202.82 356.9 195.16 357.29 187.95 359.67 180.48 361.23 172.87 359.75 165.37 359.65 157.95 358.52 150.47 357.82 143.04 356.53 136.27 353.19 129.59 349.92 124.13 344.99 121.84 338.34"/><polygon class="cls-3" points="217.71 149.96 222.75 155.5 227.43 161.41 232.86 166.59 238.59 171.5 243.81 176.89 248.48 182.8 253.98 187.92 258.54 193.95 264.38 198.76 273.01 198.28 272.84 198.14 274.54 193.07 272.51 188.09 267.45 182.55 262.6 176.81 257.27 171.53 252.28 165.92 246.65 160.93 241.91 155.09 236.24 150.12 231.11 144.63 225.75 139.37 217.31 139.77 216.79 139.38 215.79 144.92 217.71 149.96"/><polygon class="cls-3" points="115.59 133.2 110.77 138.21 105.55 142.87 101.13 148.25 97.02 153.93 92.37 159.11 87.14 163.76 82.8 169.21 77.43 173.75 73.44 179.54 68.68 184.63 66.85 189.67 68.26 194.77 68.26 194.77 77 194.87 82.04 190.05 86.56 184.76 91.46 179.81 95.66 174.22 100.82 169.5 104.99 163.89 109.75 158.81 114.25 153.49 119.08 148.46 124.28 143.77 125.76 138.33 124.52 133.01 124.05 133.39 115.59 133.2"/><polygon class="cls-3" points="156.95 283.81 164.95 284 172.94 284.36 180.12 286.02 186.72 289.09 193.45 291.84 199 296.67 200.48 299.04 201.05 304.77 193.55 305.98 186.03 305.57 178.51 305.52 171 305.8 163.48 305.26 155.97 306.04 148.44 305.57 140.96 307.17 133.43 306.95 125.92 307.34 129.87 298.92 130.83 297.82 136.47 292.91 143.13 289.57 149.77 286.17 156.95 283.81"/><polyline class="cls-3" points="116.68 29.04 123.42 32.23 130.16 35.39 136.78 38.85 143.53 42.04 150.38 45"/><polyline class="cls-3" points="284.25 58.34 287.1 65.55 290.39 72.57 293.33 79.75 296.77 86.72"/><polyline class="cls-3" points="110 317.11 114.31 323.3 118.57 329.52 122.69 335.85 127.36 341.79"/><polyline class="cls-3" points="351.27 200.1 347.69 206.76 343.94 213.33 340.68 220.17 337.01 226.79"/><polyline class="cls-3" points="220.94 33.68 215.37 38.26 209.53 42.49 203.97 47.09 198.24 51.48"/><polyline class="cls-3" points="237.42 321.39 232.58 327.02 227.7 332.62 222.73 338.16 217.94 343.85"/><polyline class="cls-3" points="344.3 138.65 338.55 134.4 332.43 130.7 326.51 126.69 320.53 122.77"/><polyline class="cls-3" points="27.97 148.81 27.13 141.78 26.63 134.71 25.45 127.72 24.01 120.78 23.02 113.76 22.52 106.67"/><polygon class="cls-3" points="129.85 31.18 130.45 38.55 132.19 45.7 129.06 52.4 128.09 59.69 124.54 66.03 120.52 72.03 116.75 78.19 111.92 83.57 107.02 88.85 102.03 94.03 96.75 98.93 90.95 103.21 85.55 108.14 79.31 111.92 73.11 115.72 66.99 119.78 60.34 122.88 53.03 124.07 46.2 126.91 38.83 126.06 31.41 127.09 24.85 123.57 19.38 118.59 18.18 111.41 17.11 104.25 19.8 97.48 21.19 90.35 25.56 84.5 27.76 77.44 33.04 72.32 36.74 66.07 41.7 60.83 47.21 56.15 51.74 50.43 57.68 46.27 64.05 42.64 69.89 38.35 75.43 33.41 81.77 29.69 88.77 27.36 95.95 25.88 103.01 24.36 110.14 23.05 117.26 24.16 123.61 27.13 129.85 31.18"/></g></svg>