<svg xmlns="http://www.w3.org/2000/svg" viewBox="0 0 495 253"><defs><style>.cls-1{fill:lime;}.cls-2{fill:none;stroke:lime;stroke-miterlimit:10;stroke-width:7px;}</style></defs><g id="UI"><path class="cls-1" d="M68.79,86.46h32.38c19.8,0,35.75,7.16,35.75,29.35,0,21.49-16.4,31-35.75,31H89.45v30.95H68.79ZM100,130.37c11.32,0,16.69-5.07,16.69-14.56s-5.82-13-16.69-13H89.45v27.52Z"/><path class="cls-1" d="M157.3,86.46h20.62V160.4h40.62v17.32H157.3Z"/><path class="cls-1" d="M256,86.46H280.8l28.42,91.26h-21.9l-11.78-46.2c-2.31-9.12-5.09-19.81-7.29-29.44h-.56c-2.23,9.63-4.77,20.32-7.08,29.44l-11.86,46.2H227.61Zm-9.62,53.46h43.67V156H246.42Z"/><path class="cls-1" d="M342.12,146.87l-29.4-60.41h22.07l9.27,21.91c2.7,7,5.41,13.64,8.28,20.92h.57c2.83-7.28,5.76-13.88,8.56-20.92l9.16-21.91h21.54l-29.4,60.41v30.85H342.12Z"/><rect class="cls-2" x="29.17" y="60.13" width="420.15" height="142.38" rx="16.08"/></g></svg>