<svg xmlns="http://www.w3.org/2000/svg" viewBox="0 0 449 101"><defs><style>.cls-1{fill:lime;}.cls-2{fill:none;stroke:lime;stroke-miterlimit:10;stroke-width:7px;}</style></defs><g id="UI"><path class="cls-1" d="M39.63,29.82H54.42c9,0,16.34,3.27,16.34,13.41,0,9.82-7.49,14.15-16.34,14.15H49.07V71.52H39.63ZM53.88,49.89c5.17,0,7.62-2.32,7.62-6.66s-2.66-5.92-7.62-5.92H49.07V49.89Z"/><path class="cls-1" d="M80.08,29.82H89.5V63.61h18.56v7.91h-28Z"/><path class="cls-1" d="M125.2,29.82h11.31l13,41.7h-10l-5.38-21.11c-1.06-4.16-2.33-9-3.33-13.45h-.26c-1,4.4-2.18,9.29-3.23,13.45l-5.42,21.11h-9.66Zm-4.4,24.43h20V61.6h-20Z"/><path class="cls-1" d="M164.53,57.43,151.1,29.82h10.08l4.24,10c1.23,3.22,2.47,6.24,3.79,9.56h.25c1.3-3.32,2.64-6.34,3.91-9.56l4.19-10h9.84L174,57.43V71.52h-9.44Z"/><path class="cls-1" d="M240.39,29.82h11.32l13,41.7h-10l-5.38-21.11c-1.06-4.16-2.33-9-3.33-13.45h-.26c-1,4.4-2.18,9.29-3.24,13.45l-5.42,21.11h-9.65ZM236,54.25h20V61.6H236Z"/><path class="cls-1" d="M268,50.9c0-13.93,8.49-21.85,19.32-21.85a16.52,16.52,0,0,1,12.18,5.31l-5.19,5.84a9,9,0,0,0-7-3c-5.47,0-9.58,5-9.58,13.39,0,8.57,3.38,13.55,10,13.55a6.34,6.34,0,0,0,4-1.23V55.7h-6V48h14.51V67.24a19.94,19.94,0,0,1-13.05,5.05C276.54,72.29,268,65,268,50.9Z"/><path class="cls-1" d="M317.19,29.82h11.32l13,41.7h-10L326.1,50.41c-1.05-4.16-2.32-9-3.32-13.45h-.26c-1,4.4-2.18,9.29-3.24,13.45l-5.42,21.11H304.2ZM312.8,54.25h19.95V61.6H312.8Z"/><path class="cls-1" d="M346.79,63.61h9.74V37.73h-9.74V29.82h28.92v7.91H366V63.61h9.74v7.91H346.79Z"/><path class="cls-1" d="M384.68,29.82h9.68l8.77,20.73,3.57,9.17h.22c-.42-4.39-1.3-10.24-1.3-15.16V29.82h9v41.7h-9.68l-8.77-20.78-3.57-9.12h-.22c.42,4.62,1.3,10.2,1.3,15.11V71.52h-9Z"/><rect class="cls-2" x="5.68" y="3.86" width="439.5" height="93.06"/></g></svg>