<svg xmlns="http://www.w3.org/2000/svg" xmlns:xlink="http://www.w3.org/1999/xlink" viewBox="0 0 635 344"><defs><style>.cls-1,.cls-2,.cls-6,.cls-7{opacity:0.72;}.cls-1{fill:url(#linear-gradient);}.cls-2,.cls-6,.cls-7{fill:none;stroke-miterlimit:10;}.cls-2{stroke:#00a292;stroke-width:12px;}.cls-3{fill:#757575;}.cls-4{fill:#f6a8ff;}.cls-5{fill:#a8b5ff;}.cls-6,.cls-7{stroke:#000;}.cls-6{stroke-width:3px;}</style><linearGradient id="linear-gradient" x1="266.77" y1="88.71" x2="268.88" y2="347.02" gradientUnits="userSpaceOnUse"><stop offset="0" stop-color="#73ffff"/><stop offset="0.35" stop-color="#72fdfd"/><stop offset="0.49" stop-color="#70f6f6"/><stop offset="0.59" stop-color="#6beaea"/><stop offset="0.68" stop-color="#65d8d8"/><stop offset="0.75" stop-color="#5cc2c2"/><stop offset="0.82" stop-color="#52a6a6"/><stop offset="0.88" stop-color="#468585"/><stop offset="0.93" stop-color="#375e5e"/><stop offset="0.98" stop-color="#283434"/><stop offset="1" stop-color="#212121"/></linearGradient></defs><g id="UI"><path class="cls-1" d="M455,56.38c-4.12.15-8-.47-12.14.41-7,1.51-14.53,3.55-21.7,4.06a21.93,21.93,0,0,1-9.35-1.46c-4-1.45-4.47-2.63-7.83-1.53-7.09,2.32-11.31,5-19.11,4.1-7.58-.82-14.15,3.67-21.75,2.52-5.72-.86-11-6.67-16.4-6.38-3.58.2-7,2.4-10.56,2.95a26,26,0,0,1-8.88-.38c-4.63-.83-7.87-1.25-12.48-.12A37,37,0,0,1,303.44,62c-6.14-.42-11.39-5.28-17.32-5.08-2.7.1-5.1,1-7.86.86-3.42-.22-6.16-2-9.48-2.58-3.61-.6-7.22.31-10.86-.12s-7.1-1.68-10.81-1.31c-7.33.75-14,5-21.36,6.07-7.57,1.06-15.23,0-22.76,1.34a46.14,46.14,0,0,1-18,0c-7-1.29-12,.79-18.75,1.58-5.72.67-10.62-1.77-14.68-5.74-5.73-5.6-8.51-10.3-17.39-8.69-5.49,1-10.26,1.29-15.45-1.13-6-2.78-10.28-8.33-17.44-6.19-6,1.79-11.1,6.27-16.68,9.24-25.32,29.16-40.18,64.66-40.18,103C44.47,252.49,144.23,333,267.3,333s222.84-80.48,222.84-179.75C490.14,117.11,477.38,84.09,455,56.38Z"/><ellipse class="cls-2" cx="267.03" cy="27.48" rx="152.71" ry="17.27"/><path class="cls-2" d="M107,33.76C93.26,19.17,178.38,10.21,267,10.21s162.06,8.55,162.06,20.93c0,9.54-73,19.89-161.62,19.89S115.51,42.85,107,33.76Z"/><path class="cls-3" d="M48.5,117.68l-27,28.21C4.26,171.54-1.33,202.72,6.1,231.59h0a99.34,99.34,0,0,0,39.31,56.74l7.92,5.55-2.86,23.74,54.12,26.53L117.7,324.3l-36-15.3,4-9.34,37.07,14.16,1.75-11.25L93,286.05l4.44-9.5,31,9.68L131,269l-42.48-8.31.54-37.36-19.35,1.38-8.29,45.89-6.12-6.83a84.64,84.64,0,0,1-19.14-36.2l-2.31-9.3a87.3,87.3,0,0,1-2.39-26.21h0c1-16.23,3.41-32.34,12.94-44.59l-.29-.05Z"/><path class="cls-3" d="M474.14,85.39l33.43,3.47a90.24,90.24,0,0,1,34.91,21.28l8,7.65,24.47,23.29,10-23.71,50.23,3.39L634.82,183l-31.88,3,5.48,37.26L593,231.68l-7.73-49.11L558.4,163a103.82,103.82,0,0,1-17.17-15.86h0c-10.05-11.57-21.79-20.33-34.5-25.75l-20.59-4"/><path class="cls-4" d="M226.72,88a37,37,0,0,1-27.36,3.72c-3.65-.93-8-2.29-10.81.24-4.13,3.69-.06,10.58,4.5,13.73-5.6,2.08-11.8,1.07-17.74,1.56s-12.62,3.48-13.85,9.4c2.69.79,5.49,1.65,7.49,3.63s2.87,5.45,1.12,7.67c-1,1.31-2.68,1.9-4.2,2.53a34.73,34.73,0,0,0-16.66,14.81c-.83,1.47-1.57,3.25-.91,4.8,1.28,3,5.71,2,8.64,3.26,4,1.77,4.21,7.74,1.9,11.47s-6.23,6.07-9.33,9.16-5.45,7.87-3.53,11.81c4.53,3.46,13.68,0,15.08,5.58.42,1.64-.25,3.35-1,4.86-3,6-7.75,11-10,17.35s-.67,14.92,5.53,17.23c6.79,2.52,16.69-3,20.47,3.25a8.07,8.07,0,0,1,1,4.25c-.06,6.88-5.49,13-4.77,19.87s7.73,11.63,14.49,11.74,13.07-3.39,18.41-7.59c-1.16,9.44-.28,21.07,8,25.47,5.7,3,13,1.13,18-2.89s8.4-9.82,11.62-15.46c4.35,9,10.95,19.47,20.84,18.85,8.47-.53,13.93-9.05,18-16.61,2.6,4.52,5.25,9.11,9.07,12.63s9,5.84,14.11,4.91,9.24-5.08,11.57-9.8,3.16-10.05,4-15.27c8.19.19,15.81,9.16,23.25,5.66,5.36-2.52,6.24-9.73,6.37-15.72,6.57-.4,11,8.45,17.59,8,4.11-.26,7.12-4.2,8.27-8.2s1-8.28,1.94-12.35c.31-1.36.85-2.84,2.09-3.45,1.57-.77,3.38.19,5.09.46,5.82.93,9.68-5.79,11.75-11.38,3-7.95,5.09-18.74-1.91-23.39,6.25,2.4,14.1-1.77,15.72-8.34s-3.41-14-10-14.84l10.06-9.79c3-2.92,6.24-6.52,5.69-10.7s-4.68-6.82-8.67-7.77-8.24-.76-12.14-2.06l9.34-15.24a4.31,4.31,0,0,0,.92-3.18c-.4-1.48-2.15-2-3.64-2.3a77.27,77.27,0,0,0-24.75-.34c-3.2-8.16,3.61-19.26-2.55-25.43-2.86-2.86-7.54-3.07-11.28-1.59s-6.76,4.33-9.69,7.11A98,98,0,0,0,346.27,86c-1.06-2.27-2.38-4.66-4.66-5.64-3.79-1.65-7.93,1.43-10.58,4.64s-5.35,7.09-9.44,7.64c-9.64,1.32-13.45-16.06-23.17-15.75-5.87.19-9.15,6.69-11.75,12-1,2.07-2.75,4.44-5,3.94a4.85,4.85,0,0,1-2.4-1.69c-4.59-5.07-8.75-12.51-15.52-12.06L260,91.94a6.33,6.33,0,0,1-1.78,3.34c-3.1,2.4-6.58-2.19-9-5.31C242.88,81.67,228.11,82.72,226.72,88Z"/><ellipse class="cls-5" cx="277.5" cy="184.78" rx="104.41" ry="77.6"/><path class="cls-6" d="M216.78,190.41s18.66-32.5,39.62-2.76"/><path class="cls-6" d="M286.9,182.76s18.66-32.5,39.62-2.76"/><path class="cls-6" d="M280.5,232.08s-18.65-32.5-39.61-2.76"/><path class="cls-6" d="M320.11,235s-18.65-32.5-39.61-2.76"/><path class="cls-7" d="M510.63,122.58c6.75-8.92,8-10.54,8.64-21.87,0-.5-1.24-7-.77-7"/><path class="cls-7" d="M29.6,275.66A35.28,35.28,0,0,1,47,256.23"/><path class="cls-7" d="M35.27,226.3A47.83,47.83,0,0,0,9.86,242.94a1.06,1.06,0,0,0-.32,1c.14.34.81.18.65-.15"/><path class="cls-7" d="M32,190.39c-8.15,2.3-15.1,5.24-21.83,10.54-1.69,1.32-3.15,2.72-4.73,4.21-.54.51-4.35,4-1.85,1.91"/><path class="cls-7" d="M35.27,163.18A55.82,55.82,0,0,0,8.33,174c-.41.31-.31-.91.05-.53"/><path class="cls-7" d="M43.62,148.37a18.07,18.07,0,0,0-21-3.73"/><path class="cls-7" d="M532,137.26c6.78-7.92,9.53-16.7,9.39-27.3l1.13,1.27"/><path class="cls-7" d="M552.25,158.44c6.4-10.32,7.92-20.35,6.74-32.57l0,1.75"/><path class="cls-7" d="M576,175a58,58,0,0,0-.2-34.53"/><path class="cls-7" d="M633.75,167.71l-30.14-3.77c-.39-.05-.88-.06-1.08.3s.5.8.56.39"/><path class="cls-7" d="M634.1,145.35,605.74,140"/></g></svg>