<svg xmlns="http://www.w3.org/2000/svg" xmlns:xlink="http://www.w3.org/1999/xlink" viewBox="0 0 1920 1080"><defs><style>.cls-1{fill:url(#radial-gradient);}.cls-2{opacity:0.85;fill:url(#radial-gradient-2);}.cls-3{fill:url(#linear-gradient);}.cls-4{fill:url(#linear-gradient-2);}.cls-5{fill:#0d4412;}.cls-6{fill:url(#linear-gradient-3);}.cls-7{fill:url(#linear-gradient-4);}.cls-8{fill:#0d4b12;}.cls-9{fill:#0d5512;}.cls-10{fill:#0d4e12;}.cls-11{fill:#f2f2f2;}.cls-12{stroke:#757575;stroke-width:19px;fill:url(#radial-gradient-3);}.cls-12,.cls-14,.cls-15,.cls-20,.cls-24,.cls-25{stroke-miterlimit:10;}.cls-13{fill:lime;}.cls-14,.cls-15,.cls-20,.cls-24,.cls-25{fill:none;}.cls-14,.cls-15{stroke:lime;}.cls-14{stroke-width:7px;}.cls-15{stroke-width:2px;}.cls-16{fill:#4f4c41;}.cls-17{fill:#302e2c;}.cls-18{fill:#21201f;}.cls-19,.cls-20,.cls-24,.cls-25{opacity:0.72;}.cls-19{fill:url(#linear-gradient-5);}.cls-20{stroke:#00a292;stroke-width:12px;}.cls-21{fill:#757575;}.cls-22{fill:#f6a8ff;}.cls-23{fill:#a8b5ff;}.cls-24,.cls-25{stroke:#000;}.cls-24{stroke-width:3px;}</style><radialGradient id="radial-gradient" cx="960" cy="540" r="778.85" gradientUnits="userSpaceOnUse"><stop offset="0" stop-color="#73ffff"/><stop offset="0.03" stop-color="#6ef1f1"/><stop offset="0.09" stop-color="#60cccc"/><stop offset="0.18" stop-color="#4a9191"/><stop offset="0.28" stop-color="#2c3f3f"/><stop offset="0.31" stop-color="#212121"/><stop offset="0.38" stop-color="#141414"/><stop offset="0.47" stop-color="#090909"/><stop offset="0.61" stop-color="#020202"/><stop offset="1"/></radialGradient><radialGradient id="radial-gradient-2" cx="959.63" cy="539.9" r="232" gradientUnits="userSpaceOnUse"><stop offset="0" stop-color="#3d77a8"/><stop offset="0.15" stop-color="#3477ab"/><stop offset="0.39" stop-color="#1a76b5"/><stop offset="0.59" stop-color="#0075be"/><stop offset="0.99" stop-color="#005b97"/></radialGradient><linearGradient id="linear-gradient" x1="767.79" y1="647.31" x2="908.9" y2="588.2" gradientUnits="userSpaceOnUse"><stop offset="0" stop-color="#0d3512"/><stop offset="1" stop-color="#0d5412"/></linearGradient><linearGradient id="linear-gradient-2" x1="816.8" y1="364.54" x2="840.8" y2="394.13" gradientUnits="userSpaceOnUse"><stop offset="0" stop-color="#0d3512"/><stop offset="0.97" stop-color="#0d5412"/></linearGradient><linearGradient id="linear-gradient-3" x1="1173.92" y1="549.5" x2="986.63" y2="549.5" xlink:href="#linear-gradient"/><linearGradient id="linear-gradient-4" x1="1132.68" y1="390.19" x2="1096.42" y2="415.27" xlink:href="#linear-gradient"/><radialGradient id="radial-gradient-3" cx="968.81" cy="539.82" r="705.42" gradientUnits="userSpaceOnUse"><stop offset="0" stop-color="#232626"/><stop offset="0.48" stop-color="#212424"/><stop offset="0.7" stop-color="#1a1c1c"/><stop offset="0.87" stop-color="#0e1010"/><stop offset="1"/></radialGradient><linearGradient id="linear-gradient-5" x1="363.64" y1="725.32" x2="365.74" y2="983.62" gradientUnits="userSpaceOnUse"><stop offset="0" stop-color="#73ffff"/><stop offset="0.35" stop-color="#72fdfd"/><stop offset="0.49" stop-color="#70f6f6"/><stop offset="0.59" stop-color="#6beaea"/><stop offset="0.68" stop-color="#65d8d8"/><stop offset="0.75" stop-color="#5cc2c2"/><stop offset="0.82" stop-color="#52a6a6"/><stop offset="0.88" stop-color="#468585"/><stop offset="0.93" stop-color="#375e5e"/><stop offset="0.98" stop-color="#283434"/><stop offset="1" stop-color="#212121"/></linearGradient></defs><g id="space"><rect class="cls-1" width="1920" height="1080"/></g><g id="earth"><circle class="cls-2" cx="959.63" cy="539.9" r="232"/><path class="cls-3" d="M861,740V683.81C861,682,871,659,871,659l16-9,5-12,9-8-6-11-6-7,12-7.66L911,596V572.87H899.23L891,564H861l-9-8.9L849,545h-4.84l-.16-9-8-8H821.34L817,522l-4-7-4-9H790.65L780,516l-12,19-10,24v18.59L770,601l11.5,11.5,6.79,10.5,8.21,11.5,1,16,19,37,18,30.93,11,23.47Z"/><path class="cls-4" d="M910.5,318.22,891,337l-8,10s3,11,4,13a68.18,68.18,0,0,0,5,7h4.75l3.25,4-8,5h-9v9.1L868,380l-12-2-22,11s-17,10-20,13-17,15-17,15l-7,20-6,9s-7-8-7-10V417.36S765,425,764,428s-10.83,18-10.83,18l-4.72-3.89,8.39-15A211.27,211.27,0,0,1,778,396.21l5.17-6.28a211.51,211.51,0,0,1,27.71-27.87h0a210.72,210.72,0,0,1,33.78-23l8.49-4.65a210.71,210.71,0,0,1,35.78-15.48l15.22-5Z"/><path class="cls-5" d="M804.5,474.5c-3,2-10,3-10,3l-6-7h-7.29l-6.71-7H782l7.5,3.15,9,3.85Z"/><path class="cls-6" d="M1090.5,692.5l-9-6V668.07l4.5-15.73,4.5-16.53V619.29l7-18.79,7-14s-11-13.41-11.5-15.21-11.5-11-11.5-11l11.5-23.61h-11.5l-15-10.17-17,13.4-17-7.4-11.31,7.4-15-13.4-11.74-6-4-3h-7.86l-4.14-15,5-16,3.86-16-3.94-7,3.08-10,8-12,6-7,8-5-2-10,10-5h8.63l10.37-5s14-3,16-3h12.18l2.82,10a42.84,42.84,0,0,1,10,3c4,2,12,4,12,4l7,5,3-9,13,4,12,6s11.14,17,12.57,17,11.17,13,11.8,17,11.8,14,11.8,14l13.83,21s8,15,8,18v23.4l-13.17,9.6s1.17,21,.17,24-3,21-4,24-12,23-12,23l-11,28-10,27s-11,8-11,5,1-10,1-10l-14,12-13,5Z"/><path class="cls-5" d="M1149.5,651.5l13-21,6-15s-6.51-5-7.25,0-9,13.78-7.87,16.89S1149.5,651.5,1149.5,651.5Z"/><path class="cls-7" d="M1123.5,429.5l7-8s-6-7-7-9-13-13-13-13-15-8-18-10-12.5-4.68-12.5-4.68-10.5-.32-13.5-.32-5.18,3.46-5.18,3.46l8.18,7.54-8.18,2.69-2.82-4.69-4-7L1042,383.24l-9.54,5.26v12.05l-9.73,5.95s-7.27-4-10.27-4-10.19-5-10.19-5v-4l-3.94-10.86h17.07l6.06-4.11-3-4H1011s6.54-9,9.54-9h7.77l4.23-9.8h12.3V343.9l6.7,5.6v3.84l11-1.84,11-1,6.5-1.88,8.79-1.47,11.91,8.55,8.45,6.8,5.74,5,10.81,10.39L1135.88,389l7.47,9.18,8.14,11.22L1159,421.2l15.71,31.57,6.79,10.73-13-7.87-9.5-9.13L1149.5,436l-12-7.46Z"/><polygon class="cls-8" points="963.5 336.5 972.41 336.5 978.5 332.1 971 328.95 963.5 328.95 959.63 328.95 959.63 332.73 963.5 336.5"/><path class="cls-8" d="M963.75,318.72l-13.12,4.72s16.12,7,9,5.51-21,.2-21,.2L925.2,336.5l-7.08,7.4L911,340v-7.24l7.5-7.23,9-7,6-5Z"/><polygon class="cls-9" points="995.5 362.5 1002.5 358.5 1002.5 349.41 995.5 349.41 990.51 355.95 995.5 362.5"/><polygon class="cls-9" points="1007.03 343.9 1007.03 352.56 1002.5 362.5 1004.76 367.51 1014.11 362.5 1014.11 349.41 1014.11 343.9 1007.03 343.9"/><polygon class="cls-10" points="1061.32 336.5 1054.24 343.9 1051.09 336.5 1042.44 334.7 1039.19 343.9 1027.5 339.18 1022.77 332.73 1027.5 325.5 1061.32 336.5"/></g><g id="stars"><path class="cls-11" d="M139.17,580.53l1.39-.36a25.28,25.28,0,0,0,18.69-21.74l1.92-17.86,1.21,16.61a25.28,25.28,0,0,0,18.78,22.6l2.87.75-1.47.3a25.29,25.29,0,0,0-20.08,22L161,616.57l-2-14.71a25.28,25.28,0,0,0-19.79-21.33Z"/><path class="cls-11" d="M432.17,842.53l1.39-.36a25.28,25.28,0,0,0,18.69-21.74l1.92-17.86,1.21,16.61a25.28,25.28,0,0,0,18.78,22.6l2.87.75-1.47.3a25.29,25.29,0,0,0-20.08,22L454,878.57l-2-14.71a25.28,25.28,0,0,0-19.79-21.33Z"/><path class="cls-11" d="M531.17,254.53l1.39-.36a25.28,25.28,0,0,0,18.69-21.74l1.92-17.86,1.21,16.61a25.28,25.28,0,0,0,18.78,22.6l2.87.75-1.47.3a25.29,25.29,0,0,0-20.08,22L553,290.57l-2-14.71a25.28,25.28,0,0,0-19.79-21.33Z"/><path class="cls-11" d="M1546.17,216.53l1.39-.36a25.28,25.28,0,0,0,18.69-21.74l1.92-17.86,1.21,16.61a25.28,25.28,0,0,0,18.78,22.6l2.87.75-1.47.3a25.29,25.29,0,0,0-20.08,22L1568,252.57l-2-14.71a25.28,25.28,0,0,0-19.79-21.33Z"/><path class="cls-11" d="M1712.17,777.53l1.39-.36a25.28,25.28,0,0,0,18.69-21.74l1.92-17.86,1.21,16.61a25.28,25.28,0,0,0,18.78,22.6l2.87.75-1.47.3a25.29,25.29,0,0,0-20.08,22L1734,813.57l-2-14.71a25.28,25.28,0,0,0-19.79-21.33Z"/><path class="cls-11" d="M1478.17,554.53l1.39-.36a25.28,25.28,0,0,0,18.69-21.74l1.92-17.86,1.21,16.61a25.28,25.28,0,0,0,18.78,22.6l2.87.75-1.47.3a25.29,25.29,0,0,0-20.08,22L1500,590.57l-2-14.71a25.28,25.28,0,0,0-19.79-21.33Z"/><path class="cls-11" d="M1348.17,777.53l1.39-.36a25.28,25.28,0,0,0,18.69-21.74l1.92-17.86,1.21,16.61a25.28,25.28,0,0,0,18.78,22.6l2.87.75-1.47.3a25.29,25.29,0,0,0-20.08,22L1370,813.57l-2-14.71a25.28,25.28,0,0,0-19.79-21.33Z"/><path class="cls-11" d="M1102.17,935.71l.73-.19a13.24,13.24,0,0,0,9.78-11.38l1-9.34.64,8.69a13.23,13.23,0,0,0,9.83,11.83l1.5.39-.77.16a13.24,13.24,0,0,0-10.51,11.5l-.8,7.2-1-7.7a13.23,13.23,0,0,0-10.36-11.16Z"/><path class="cls-11" d="M775.17,879.71l.73-.19a13.24,13.24,0,0,0,9.78-11.38l1-9.34.64,8.69a13.23,13.23,0,0,0,9.83,11.83l1.5.39-.77.16a13.24,13.24,0,0,0-10.51,11.5l-.8,7.2-1-7.7a13.23,13.23,0,0,0-10.36-11.16Z"/><path class="cls-11" d="M519.17,579.71l.73-.19a13.24,13.24,0,0,0,9.78-11.38l1-9.34.64,8.69a13.23,13.23,0,0,0,9.83,11.83l1.5.39-.77.16a13.24,13.24,0,0,0-10.51,11.5l-.8,7.2-1-7.7a13.23,13.23,0,0,0-10.36-11.16Z"/><path class="cls-11" d="M897.17,177.71l.73-.19a13.24,13.24,0,0,0,9.78-11.38l1-9.34.64,8.69a13.23,13.23,0,0,0,9.83,11.83l1.5.39-.77.16a13.24,13.24,0,0,0-10.51,11.5l-.8,7.2-1-7.7a13.23,13.23,0,0,0-10.36-11.16Z"/><path class="cls-11" d="M138.17,103.71l.73-.19a13.24,13.24,0,0,0,9.78-11.38l1-9.34.64,8.69a13.23,13.23,0,0,0,9.83,11.83l1.5.39-.77.16a13.24,13.24,0,0,0-10.51,11.5l-.8,7.2-1-7.7a13.23,13.23,0,0,0-10.36-11.16Z"/><path class="cls-11" d="M1757.17,143.71l.73-.19a13.24,13.24,0,0,0,9.78-11.38l1-9.34.64,8.69a13.23,13.23,0,0,0,9.83,11.83l1.5.39-.77.16a13.24,13.24,0,0,0-10.51,11.5l-.8,7.2-1-7.7a13.23,13.23,0,0,0-10.36-11.16Z"/></g><g id="UI"><rect class="cls-12" x="377.66" y="99" width="1182.29" height="881.63" rx="4.35"/><path class="cls-13" d="M1095,838.4h14.8c9,0,16.33,3.27,16.33,13.41,0,9.82-7.49,14.15-16.33,14.15h-5.36V880.1H1095Zm14.25,20.06c5.17,0,7.63-2.31,7.63-6.65s-2.66-5.92-7.63-5.92h-4.81v12.57Z"/><path class="cls-13" d="M1135.4,838.4h9.42v33.79h18.56v7.91h-28Z"/><path class="cls-13" d="M1180.52,838.4h11.31l13,41.7h-10L1189.43,859c-1.06-4.17-2.33-9-3.33-13.45h-.26c-1,4.4-2.17,9.28-3.23,13.45l-5.42,21.11h-9.66Zm-4.4,24.43h20v7.35h-20Z"/><path class="cls-13" d="M1219.86,866l-13.44-27.6h10.08l4.24,10c1.23,3.22,2.48,6.23,3.79,9.56h.25c1.3-3.33,2.64-6.34,3.92-9.56l4.18-10h9.85L1229.29,866v14.1h-9.43Z"/><path class="cls-13" d="M1295.72,838.4H1307l13,41.7h-10L1304.63,859c-1.06-4.17-2.33-9-3.33-13.45H1301c-1,4.4-2.18,9.28-3.23,13.45l-5.42,21.11h-9.66Zm-4.4,24.43h20v7.35h-20Z"/><path class="cls-13" d="M1323.37,859.48c0-13.94,8.48-21.85,19.31-21.85a16.55,16.55,0,0,1,12.18,5.3l-5.19,5.84a9,9,0,0,0-7-3c-5.47,0-9.57,5-9.57,13.39,0,8.57,3.38,13.55,10,13.55a6.43,6.43,0,0,0,4-1.23v-7.21h-6.06v-7.69h14.51v19.23a19.94,19.94,0,0,1-13,5C1331.86,880.87,1323.37,873.54,1323.37,859.48Z"/><path class="cls-13" d="M1372.51,838.4h11.32l13,41.7h-10L1381.43,859c-1.06-4.17-2.33-9-3.33-13.45h-.26c-1,4.4-2.18,9.28-3.23,13.45l-5.42,21.11h-9.66Zm-4.39,24.43h20v7.35h-20Z"/><path class="cls-13" d="M1402.11,872.19h9.74V846.31h-9.74V838.4H1431v7.91h-9.74v25.88H1431v7.91h-28.92Z"/><path class="cls-13" d="M1440,838.4h9.68l8.77,20.73,3.57,9.17h.22c-.42-4.39-1.3-10.24-1.3-15.16V838.4h9v41.7h-9.68l-8.77-20.78-3.57-9.12h-.22c.42,4.61,1.3,10.2,1.3,15.11V880.1h-9Z"/><rect class="cls-14" x="1061" y="812.44" width="439.5" height="93.06" rx="8.96"/><path class="cls-13" d="M427.88,169.76h47.38v11.05H441v18.9h29v11H441v21.85h35.37v11H427.88Z"/><path class="cls-13" d="M510.22,169.76h15.49l23.95,73.9h-14l-11.12-39.3c-2.22-7.79-4.59-16.18-6.6-24.36h-.45c-2.08,8.18-4.29,16.57-6.52,24.36l-11.25,39.3H486.27Zm-9.73,43.55h34.65V223.7H500.49Z"/><path class="cls-13" d="M561.36,169.76h24.71c15.32,0,27.24,5.42,27.24,22,0,15.88-11.92,23.09-27.24,23.09H574.58v28.86H561.36Zm23.35,34.53c10.12,0,15.62-4.25,15.62-12.58,0-8.48-5.5-11.45-15.62-11.45H574.58v24Zm8.39-.88,23.07,40.25H601.4l-17.83-32.38Z"/><path class="cls-13" d="M647,180.81H623.74V169.76h59.72v11.05H660.17v62.85H647Z"/><path class="cls-13" d="M695.56,169.76h13.22V199.4h25.27V169.76h13.22v73.9H734.05V210.92H708.78v32.74H695.56Z"/><path class="cls-13" d="M828.59,206.92c0-24.3,14.34-38.52,33.52-38.52a28.26,28.26,0,0,1,21,9.21l-7.34,8.19c-3.34-3.44-7.2-6-13.66-6-11.75,0-19.88,10.14-19.88,26.69,0,16.87,7.09,27.06,20.11,27.06,3.95,0,7.78-1.17,9.91-3.21v-16H859.59V203.65h24.59v32.61A33.23,33.23,0,0,1,861.57,245C842.83,245,828.59,231.44,828.59,206.92Z"/><path class="cls-13" d="M895.8,206.37c0-24.3,11.92-38,29.07-38s29.07,13.67,29.07,38c0,24.76-11.93,38.65-29.07,38.65S895.8,231.13,895.8,206.37Zm44.61,0c0-17-6.13-26.54-15.54-26.54s-15.54,9.59-15.54,26.54c0,17.41,6.13,27.21,15.54,27.21S940.41,223.78,940.41,206.37Z"/><path class="cls-13" d="M986.11,180.81H962.83V169.76h59.71v11.05H999.26v62.85H986.11Z"/><path class="cls-13" d="M425.12,305.39h19.35c21.81,0,34.9,12.19,34.9,36.61s-13.09,37.3-34.2,37.3H425.12Zm18.54,63.24c14.11,0,22.18-8.44,22.18-26.63s-8.07-25.95-22.18-25.95h-5.4v52.58Z"/><path class="cls-13" d="M495.7,305.39h47.38v11.06H508.84v18.9h29v11h-29v21.84h35.37V379.3H495.7Z"/><path class="cls-13" d="M558.49,369.85l7.64-9c5.61,5,12.89,8.41,20.63,8.41,8.59,0,13.15-3.78,13.15-9,0-6.58-5.06-8.35-12.28-11.39l-10.15-4.41c-7.77-3-15.78-8.76-15.78-19.6,0-11.76,10.59-20.83,25.68-20.83a34.08,34.08,0,0,1,23.66,9.4l-6.72,8.35a26.15,26.15,0,0,0-17.57-6.32c-7,0-11.75,3.16-11.75,8.62,0,5.76,5.9,7.86,12.61,10.43l9.69,4.22c9.41,3.61,16.06,9.23,16.06,19.9,0,12-10.11,22-27.39,22A40.08,40.08,0,0,1,558.49,369.85Z"/><path class="cls-13" d="M647,316.45H623.74V305.39h59.72v11.06H660.17V379.3H647Z"/><path class="cls-13" d="M697,305.39h24.7c15.33,0,27.25,5.43,27.25,21.95,0,15.89-11.92,23.09-27.25,23.09H710.21V379.3H697Zm23.35,34.53c10.12,0,15.62-4.25,15.62-12.58s-5.5-11.44-15.62-11.44H710.21v24Zm8.39-.88L751.8,379.3H737L719.2,346.92Z"/><path class="cls-13" d="M760.17,342c0-24.29,11.92-38,29.06-38s29.07,13.67,29.07,38c0,24.76-11.92,38.65-29.07,38.65S760.17,366.76,760.17,342Zm44.6,0c0-16.94-6.13-26.53-15.54-26.53S773.7,325.06,773.7,342c0,17.42,6.13,27.22,15.53,27.22S804.77,359.42,804.77,342Z"/><path class="cls-13" d="M850.48,353.63l-24.29-48.24h14l9.26,19.77c2.49,5.73,4.88,11.21,7.56,17.09h.45c2.61-5.88,5.26-11.36,7.79-17.09l9-19.77h13.62l-24.29,48.24V379.3H850.48Z"/><path class="cls-13" d="M902.6,305.39H950v11.06H915.75v18.9h29v11h-29v21.84h35.37V379.3H902.6Z"/><path class="cls-13" d="M967.66,305.39H987c21.82,0,34.91,12.19,34.91,36.61s-13.09,37.3-34.2,37.3H967.66Zm18.54,63.24c14.11,0,22.18-8.44,22.18-26.63s-8.07-25.95-22.18-25.95h-5.4v52.58Z"/><path class="cls-13" d="M1050.65,370.47a9.86,9.86,0,1,1,19.71,0c0,6.09-4.34,10.18-9.86,10.18S1050.65,376.56,1050.65,370.47Zm3.74-54-.39-12.87h13l-.4,12.87-1.78,35.24h-8.65Z"/><polygon class="cls-13" points="1455.73 161.68 1439.01 161.68 1439.01 176.59 1455.73 176.59 1463.88 186.03 1463.88 152.42 1455.73 161.68"/><path class="cls-15" d="M1467.27,156s15.11,13,0,27.58"/><path class="cls-15" d="M1474.89,157.67s10.83,11.39,0,24.23"/><path class="cls-16" d="M1520.31,681c-5.3-1.33-35.77-14.57-35.77-14.57l-26.47-11.91-.06,0h0a37.67,37.67,0,0,1-24.72-27l-3-12.72s0-.08,0-.12l-14.77-33a27.72,27.72,0,0,1-2.43-11.34V515.55a28.39,28.39,0,0,1,.55-5.52l8-39.44a.69.69,0,0,1,.21-.37l115.63-97.78a.66.66,0,0,1,.28-.13l63.4-13.82a31.38,31.38,0,0,1,6.76-.73h34.28a31.2,31.2,0,0,1,10.4,1.79l45.26,9.8.17.06,84.52,45.24a.55.55,0,0,1,.21.19c2.77,4.1,15.31,20.43,15.81,21.08l0,.06,13,12.25a.62.62,0,0,1,.2.42l6.6,86.59a.22.22,0,0,1,0,.08,72.27,72.27,0,0,1-1.72,9.89,48.7,48.7,0,0,1-14.56,25.39l-6.22,5.73,0,0-48.92,38.34a.86.86,0,0,0-.13.14l-13.15,18.41-.09.1-14.49,13.17-.07.06-14.93,10-.09.07-10.08,9.7-.07.05L1679.32,677l-.07.06-12,11.74a.64.64,0,0,1-.45.19l-122.56,0a.52.52,0,0,1-.21,0Z"/><path class="cls-17" d="M1544.15,689l13.25-14.58,19.43-4.41,19-1.77h21.64l20.31,4,15.9,6.4,11,5.08,2.37,5.34a15.25,15.25,0,0,1-.29,13h0A15.25,15.25,0,0,1,1656,710.2c-8.91,1.67-23,4.36-25.68,5.25-4,1.33-43.23,5.47-48.36,5.47-2.74,0-17.46-5.13-25.94-9a15.25,15.25,0,0,1-8.35-9.93Z"/><path class="cls-18" d="M1442.69,582.32l9.22-14.45a26,26,0,0,1,7.83-7.87c6.13-4,16.08-10.28,17.29-10.59s11.26-1.32,18.78-2.06a25.88,25.88,0,0,1,15.29,3.2l11.23,6.3a26,26,0,0,1,5.9,4.53l7.57,7.77a26.09,26.09,0,0,1,7.19,15.07l.21,1.81a26,26,0,0,1-2.76,15.11l-5.56,10.65a25.88,25.88,0,0,1-3.17,4.73l-14.46,17.14A25.78,25.78,0,0,1,1511,639c-6.44,4-19.48,12.06-19.65,12.39s-13.47-1.32-15.23,0c-1,.72-9.08-1-16.31-2.79a26.07,26.07,0,0,1-16.9-13.12h0a26,26,0,0,1-3-10.31l-1.31-18.34c0-.61-.07-1.23-.07-1.85v-8.7A26.06,26.06,0,0,1,1442.69,582.32Z"/><path class="cls-18" d="M1646.62,555.14l14-7a30.49,30.49,0,0,1,18.81-2.79l18.64,3.19a30.64,30.64,0,0,1,9.56,3.33l21.56,11.85a30.51,30.51,0,0,1,9.08,7.61h0a30.56,30.56,0,0,1,6.14,25.28l-.56,2.75a30.5,30.5,0,0,1-3.41,9l-5.78,10.12a30.45,30.45,0,0,1-6,7.42l-15,13.72a30.09,30.09,0,0,1-2.64,2.14l-14.9,10.81a30.36,30.36,0,0,1-13.93,5.56c-5.64.75-12.49,1.62-13.51,1.62-1.2,0-13.93-3.83-21.89-6.26a30.57,30.57,0,0,1-11.33-6.36l-4.62-4.11a30.47,30.47,0,0,1-9.07-14.33c-1.9-6.52-4.13-14.53-3.87-15.31.44-1.32,4-19.43,4.42-20.75.27-.83,5.92-13.45,10.1-22.75A30.52,30.52,0,0,1,1646.62,555.14Z"/><path class="cls-17" d="M1544.15,370.9l13.79,8.34a25.26,25.26,0,0,1,11.1,14.29h0a25.27,25.27,0,0,1-1.66,18.75L1560.93,425a25.27,25.27,0,0,1-5.85,7.53l-30.39,26.69a25.9,25.9,0,0,1-4.71,3.27c-8.27,4.43-34,18.21-35.44,19-1.33.66-20.65,3.33-30.15,4.6a25.22,25.22,0,0,1-10.19-.71l-3.32-.94a25.23,25.23,0,0,1-10.24-5.7l-9-8.29V454.19a55.11,55.11,0,0,1,1.21-11.45l4-18.92a54.85,54.85,0,0,1,14.68-27.13l3.86-3.89a54.67,54.67,0,0,1,23.62-14l20.35-5.91c1.19-.35,2.4-.65,3.62-.92l11.81-2.57Z"/><path class="cls-17" d="M1768,401.46s-18.1,9.73-20.75,10.18-17.22,2.65-18.55,2.65-32.68-4.42-35.77-5.3a108.81,108.81,0,0,1-13.69-5.74c-1-.65-3.13-7.23-4.21-10.7a14.29,14.29,0,0,1-.65-4.26h0a14.36,14.36,0,0,1,8-12.86l6.18-3.09,24-7.66a34.48,34.48,0,0,1,10.43-1.62h9.06a34.29,34.29,0,0,1,15.39,3.64l1.55.77a34.45,34.45,0,0,1,14.89,14.45h0a34.39,34.39,0,0,1,4.11,16.31Z"/><path class="cls-17" d="M1815.74,526l-11.46,1.51a19.23,19.23,0,0,1-10.24-1.47h0a19.16,19.16,0,0,1-9.25-8.61L1783,514a19.23,19.23,0,0,1-1.64-13.62l1.56-6.27a19.18,19.18,0,0,1,1.9-4.76l6.68-11.88,6.56-11.16a19.35,19.35,0,0,1,6-6.31l10.25-6.74,13.33,13.34a37.7,37.7,0,0,0,2.72,5.13c1.2,1.8,2.39,8.47,3.35,15.24a35.45,35.45,0,0,1-8.65,28.48h0Z"/><path class="cls-18" d="M1493.37,493.3a1.22,1.22,0,0,0,.26.78c2.87,3.8,24.52,37.23,25.79,37.23,1.06,0,24.59,16,34.07,22.49a1.34,1.34,0,0,0,2-1.67l-6.85-15.4a1,1,0,0,0-.13-.23l-25.85-36.36a1.3,1.3,0,0,0-.3-.32L1502,485.11a1.31,1.31,0,0,0-.51-.23l-6.48-1.36a1.35,1.35,0,0,0-1.63,1.31Z"/><path class="cls-18" d="M1606.54,547.9l32.06-36.4.13-.12,27.73-20.65,0,0,27.25-18.06a.8.8,0,0,1,.25-.11l6.91-1.82a.83.83,0,0,1,1,1l-2.69,11.16a.82.82,0,0,1-.32.47l-36.79,26.94a.52.52,0,0,0-.11.1l-28.08,29.39a1,1,0,0,1-.32.21l-26.17,9.24A.83.83,0,0,1,1606.54,547.9Z"/><path class="cls-18" d="M1527.5,641.92c9.1-.66,64.64-5.15,78.6-6.28a3.82,3.82,0,0,1,4,2.84h0a3.84,3.84,0,0,1-2.53,4.65L1599,652c-.16,0-5.84,3-6,3l-23,10c-.27,0-14.72,0-15,0-3.35-.11-16.77-3.82-18-3s-5.48-10.47-9.41-10.65a3.82,3.82,0,0,1-2.34-1l-1-.89a3.85,3.85,0,0,1,0-5.79l1-.86A3.84,3.84,0,0,1,1527.5,641.92Z"/><path class="cls-19" d="M551.86,693c-4.12.14-8-.48-12.14.41-7,1.51-14.53,3.55-21.7,4.06a21.86,21.86,0,0,1-9.34-1.47c-4-1.44-4.47-2.63-7.84-1.52-7.09,2.32-11.31,4.95-19.11,4.1-7.58-.82-14.15,3.67-21.75,2.52-5.72-.87-11-6.67-16.4-6.38-3.58.19-7,2.4-10.56,2.95a26,26,0,0,1-8.88-.38c-4.63-.84-7.87-1.25-12.48-.13a37.31,37.31,0,0,1-11.36,1.44c-6.14-.42-11.39-5.28-17.31-5.08-2.71.09-5.11,1-7.87.86-3.42-.22-6.16-2-9.48-2.58-3.61-.6-7.22.31-10.86-.12s-7.1-1.69-10.81-1.31c-7.33.74-14,5-21.36,6.06-7.57,1.06-15.23,0-22.76,1.35a46.34,46.34,0,0,1-18,0c-7-1.3-12,.78-18.75,1.57-5.72.67-10.62-1.77-14.68-5.73-5.73-5.61-8.51-10.3-17.39-8.7-5.49,1-10.26,1.29-15.45-1.12-6-2.79-10.27-8.33-17.44-6.19-6,1.78-11.1,6.27-16.68,9.23-25.32,29.17-40.18,64.67-40.18,103,0,99.28,99.76,179.76,222.83,179.76S587,889.1,587,789.82C587,753.72,574.24,720.7,551.86,693Z"/><ellipse class="cls-20" cx="363.89" cy="664.08" rx="152.71" ry="17.27"/><path class="cls-20" d="M203.83,670.36c-13.71-14.59,71.42-23.54,160.06-23.54S526,655.37,526,667.75c0,9.53-73,19.88-161.62,19.88S212.37,679.46,203.83,670.36Z"/><path class="cls-21" d="M145.36,754.28l-27,28.21C101.12,808.14,95.53,839.33,103,868.2h0a99.34,99.34,0,0,0,39.31,56.74l7.92,5.54-2.86,23.75,54.12,26.53,13.11-19.86-36-15.29,4-9.35,37.07,14.17,1.75-11.26-31.52-16.51,4.44-9.51,31,9.69,2.59-17.21-42.48-8.31L186,860l-19.36,1.38-8.29,45.89-6.12-6.82a84.73,84.73,0,0,1-19.14-36.21l-2.31-9.3a87.53,87.53,0,0,1-2.39-26.2h0c1-16.24,3.41-32.35,12.94-44.6l-.29,0Z"/><path class="cls-21" d="M571,722l33.43,3.47a90.26,90.26,0,0,1,34.91,21.27l8,7.66,24.47,23.28,10-23.7L732,757.36l-.32,62.24-31.88,3,5.48,37.25-15.46,8.47-7.73-49.11-26.83-19.53a103.75,103.75,0,0,1-17.17-15.85h0C628,772.22,616.3,763.46,603.59,758L583,754"/><path class="cls-22" d="M323.58,724.62a37,37,0,0,1-27.36,3.72c-3.65-.94-8-2.29-10.81.23-4.13,3.7-.06,10.59,4.5,13.73-5.6,2.08-11.8,1.08-17.74,1.57s-12.62,3.47-13.85,9.39c2.69.8,5.49,1.65,7.49,3.63s2.87,5.46,1.12,7.68c-1,1.31-2.68,1.89-4.2,2.53a34.73,34.73,0,0,0-16.66,14.81c-.83,1.46-1.57,3.24-.91,4.79,1.28,3,5.71,2,8.64,3.26,4,1.78,4.21,7.75,1.9,11.48s-6.23,6.06-9.33,9.15-5.45,7.87-3.53,11.82c4.53,3.46,13.68,0,15.08,5.57a7.14,7.14,0,0,1-1,4.87c-3,6-7.75,11-10,17.35s-.68,14.91,5.53,17.22c6.78,2.53,16.69-3,20.46,3.25a8.12,8.12,0,0,1,1,4.25c-.06,6.88-5.49,13-4.77,19.88s7.73,11.62,14.49,11.74,13.07-3.39,18.41-7.59c-1.16,9.43-.28,21.06,8,25.46,5.7,3,13,1.14,18-2.89s8.4-9.81,11.62-15.46c4.35,9,10.95,19.48,20.84,18.85,8.47-.53,13.93-9,18-16.6,2.6,4.52,5.25,9.11,9.07,12.62s9.05,5.85,14.12,4.91,9.23-5.07,11.56-9.8,3.16-10,4-15.26c8.19.18,15.81,9.16,23.25,5.66,5.36-2.52,6.24-9.74,6.37-15.73,6.57-.39,11,8.45,17.59,8,4.11-.26,7.12-4.19,8.28-8.2s1-8.28,1.93-12.34c.31-1.36.86-2.84,2.1-3.46,1.56-.77,3.37.19,5.08.47,5.82.93,9.68-5.79,11.76-11.39,3-7.94,5.09-18.73-1.91-23.39,6.24,2.41,14.1-1.76,15.71-8.34s-3.41-14-10-14.83l10.06-9.79c3-2.92,6.24-6.52,5.69-10.7s-4.67-6.82-8.67-7.77-8.24-.76-12.14-2.07l9.34-15.23a4.32,4.32,0,0,0,.92-3.18c-.4-1.49-2.15-2-3.64-2.3a77.27,77.27,0,0,0-24.75-.35c-3.2-8.15,3.61-19.26-2.55-25.42-2.86-2.86-7.54-3.07-11.28-1.6s-6.76,4.33-9.69,7.12a98.17,98.17,0,0,0-7.57-23.4c-1.06-2.26-2.38-4.65-4.66-5.64-3.79-1.64-7.93,1.44-10.58,4.65s-5.35,7.08-9.44,7.64c-9.64,1.32-13.44-16.07-23.17-15.75-5.87.18-9.15,6.69-11.75,12-1,2.07-2.75,4.43-5,3.94a4.85,4.85,0,0,1-2.4-1.69c-4.59-5.07-8.75-12.51-15.52-12.06l-3.76,12.85a6.2,6.2,0,0,1-1.78,3.33c-3.09,2.4-6.58-2.19-9-5.3C339.74,718.28,325,719.32,323.58,724.62Z"/><ellipse class="cls-23" cx="374.36" cy="821.38" rx="104.41" ry="77.6"/><path class="cls-24" d="M313.65,827s18.65-32.5,39.61-2.77"/><path class="cls-24" d="M383.76,819.37s18.66-32.5,39.62-2.77"/><path class="cls-24" d="M377.36,868.69s-18.65-32.51-39.61-2.77"/><path class="cls-24" d="M417,871.6s-18.65-32.5-39.61-2.76"/><path class="cls-25" d="M607.49,759.18c6.75-8.91,8-10.54,8.64-21.86,0-.5-1.24-7-.76-7"/><path class="cls-25" d="M126.47,912.27a35.24,35.24,0,0,1,17.37-19.44"/><path class="cls-25" d="M132.13,862.9a47.94,47.94,0,0,0-25.41,16.64c-.22.29-.46.66-.32,1s.81.17.65-.16"/><path class="cls-25" d="M128.84,827c-8.16,2.3-15.11,5.25-21.84,10.54-1.69,1.33-3.15,2.72-4.73,4.22-.54.51-4.35,4-1.85,1.91"/><path class="cls-25" d="M132.14,799.79a55.84,55.84,0,0,0-26.95,10.76c-.41.31-.31-.91,0-.53"/><path class="cls-25" d="M140.48,785a18.09,18.09,0,0,0-21-3.73"/><path class="cls-25" d="M628.84,773.86c6.78-7.92,9.53-16.69,9.39-27.29l1.13,1.27"/><path class="cls-25" d="M649.11,795c6.4-10.31,7.92-20.35,6.74-32.56l0,1.74"/><path class="cls-25" d="M672.89,811.61a58,58,0,0,0-.2-34.53"/><path class="cls-25" d="M730.61,804.32l-30.14-3.78c-.39,0-.88,0-1.08.31s.5.79.56.38"/><path class="cls-25" d="M731,782l-28.36-5.36"/></g></svg>